<svg xmlns="http://www.w3.org/2000/svg" xmlns:xlink="http://www.w3.org/1999/xlink" xmlns:lucid="lucid" width="876" height="840"><g transform="translate(176 -100)" lucid:page-tab-id="0_0"><path d="M-1806.87 0h3677.74v1322.83h-3677.74z" fill="#fff"/><path d="M300 126a6 6 0 0 1 6-6h348a6 6 0 0 1 6 6v248a6 6 0 0 1-6 6H306a6 6 0 0 1-6-6z" stroke="#000" stroke-width="3" fill-opacity="0"/><use xlink:href="#a" transform="matrix(1,0,0,1,308,128) translate(111.04320987654322 17.77777777777778)"/><use xlink:href="#b" transform="matrix(1,0,0,1,308,128) translate(159.0679012345679 17.77777777777778)"/><path d="M320 166a6 6 0 0 1 6-6h308a6 6 0 0 1 6 6v168a6 6 0 0 1-6 6H326a6 6 0 0 1-6-6z" stroke="#000" stroke-width="3" fill-opacity="0"/><use xlink:href="#c" transform="matrix(1,0,0,1,328,168) translate(16.598765432098787 17.77777777777778)"/><use xlink:href="#d" transform="matrix(1,0,0,1,328,168) translate(220.98148148148144 17.77777777777778)"/><path d="M300 466a6 6 0 0 1 6-6h368a6 6 0 0 1 6 6v448a6 6 0 0 1-6 6H306a6 6 0 0 1-6-6z" stroke="#000" stroke-width="3" fill-opacity="0"/><use xlink:href="#e" transform="matrix(1,0,0,1,308,468) translate(92.74074074074073 17.77777777777778)"/><use xlink:href="#f" transform="matrix(1,0,0,1,308,468) translate(198.5432098765432 17.77777777777778)"/><path d="M330 506a6 6 0 0 1 6-6h308a6 6 0 0 1 6 6v388a6 6 0 0 1-6 6H336a6 6 0 0 1-6-6z" stroke="#000" stroke-width="3" fill-opacity="0"/><use xlink:href="#g" transform="matrix(1,0,0,1,338,507.99999999999994) translate(73.82098765432099 17.77777777777778)"/><use xlink:href="#h" transform="matrix(1,0,0,1,338,507.99999999999994) translate(146.41358024691357 17.77777777777778)"/><path d="M355 542.55a6 6 0 0 1 6-6h258a6 6 0 0 1 6 6V874a6 6 0 0 1-6 6H361a6 6 0 0 1-6-6z" stroke="#000" stroke-width="3" fill-opacity="0"/><use xlink:href="#g" transform="matrix(1,0,0,1,363,544.5542397000181) translate(33.358024691358025 17.77777777777778)"/><use xlink:href="#i" transform="matrix(1,0,0,1,363,544.5542397000181) translate(105.9506172839506 17.77777777777778)"/><use xlink:href="#j" transform="matrix(1,0,0,1,363,544.5542397000181) translate(156.50617283950618 17.77777777777778)"/><path d="M-63.4 286a6 6 0 0 1 6-6h188a6 6 0 0 1 6 6v88a6 6 0 0 1-6 6h-188a6 6 0 0 1-6-6z" stroke="#000" stroke-width="5" fill="#fff"/><use xlink:href="#k" transform="matrix(1,0,0,1,-51.39811711089709,292) translate(44.59559043209876 43.89100777777778)"/><use xlink:href="#l" transform="matrix(1,0,0,1,-51.39811711089709,292) translate(91.65988401234569 43.89100777777778)"/><path d="M-64.96 170.68H-144a6 6 0 0 0-6 6V324a6 6 0 0 0 6 6h53.28" stroke="#1071e5" stroke-width="5" fill="none"/><path d="M-62.46 173.18h-2.57v-5h2.56z" stroke="#1071e5" stroke-width=".05" fill="#1071e5"/><path d="M-73.95 330l-14.27 4.64v-9.28z" stroke="#1071e5" stroke-width="5" fill="#1071e5"/><path d="M-60 126a6 6 0 0 1 6-6h181.2a6 6 0 0 1 6 6v89.35a6 6 0 0 1-6 6H-54a6 6 0 0 1-6-6z" stroke="#000" stroke-width="5" fill="#fff"/><use xlink:href="#k" transform="matrix(1,0,0,1,-48,132) translate(33.096190370370365 29.60975777777778)"/><use xlink:href="#m" transform="matrix(1,0,0,1,-48,132) translate(80.16048395061728 29.60975777777778)"/><use xlink:href="#n" transform="matrix(1,0,0,1,-48,132) translate(42.23077691358024 55.74314444444445)"/><path d="M340 226a6 6 0 0 1 6-6h268a6 6 0 0 1 6 6v68a6 6 0 0 1-6 6H346a6 6 0 0 1-6-6z" stroke="#000" stroke-width="5" fill="#fff"/><use xlink:href="#o" transform="matrix(1,0,0,1,352,232) translate(71.18198179012346 31.67225777777778)"/><path d="M141.57 330h71.23a6 6 0 0 0 6-6v-68a6 6 0 0 1 6-6h48.88" stroke="#1071e5" stroke-width="5" fill="none"/><path d="M141.63 332.5h-2.56v-5h2.56z" stroke="#1071e5" stroke-width=".05" fill="#1071e5"/><path d="M290.45 250l-14.27 4.64v-9.28z" stroke="#1071e5" stroke-width="5" fill="#1071e5"/><path d="M380 586a6 6 0 0 1 6-6h208a6 6 0 0 1 6 6v68a6 6 0 0 1-6 6H386a6 6 0 0 1-6-6z" stroke="#000" stroke-width="5" fill="#fff"/><use xlink:href="#p" transform="matrix(1,0,0,1,392,592) translate(23.03379660493826 31.67225777777778)"/><path d="M380 686a6 6 0 0 1 6-6h208a6 6 0 0 1 6 6v68a6 6 0 0 1-6 6H386a6 6 0 0 1-6-6z" stroke="#000" stroke-width="5" fill="#fff"/><use xlink:href="#o" transform="matrix(1,0,0,1,392,692) translate(41.18198179012346 31.67225777777778)"/><path d="M380 786a6 6 0 0 1 6-6h208a6 6 0 0 1 6 6v68a6 6 0 0 1-6 6H386a6 6 0 0 1-6-6z" stroke="#000" stroke-width="5" fill="#fff"/><use xlink:href="#q" transform="matrix(1,0,0,1,392,792) translate(14.564643518518523 31.67225777777778)"/><path d="M480 383.96v49.72" stroke="#1071e5" stroke-width="5" fill="none"/><path d="M482.5 384.03h-5v-2.57h5z" stroke="#1071e5" stroke-width=".05" fill="#1071e5"/><path d="M480 450.45l-4.64-14.27h9.28z" stroke="#1071e5" stroke-width="5" fill="#1071e5"/><path d="M539.08 456.03v-51.17" stroke="#1071e5" stroke-width="5" fill="none"/><path d="M541.58 458.53h-5v-2.57h5z" stroke="#1071e5" stroke-width=".05" fill="#1071e5"/><path d="M539.08 388.1l4.63 14.26h-9.26z" stroke="#1071e5" stroke-width="5" fill="#1071e5"/><path d="M-120 746a6 6 0 0 1 6-6h288a6 6 0 0 1 6 6v89.35a6 6 0 0 1-6 6h-288a6 6 0 0 1-6-6z" stroke="#000" stroke-width="5" fill="#fff"/><use xlink:href="#r" transform="matrix(1,0,0,1,-108,752) translate(46.23067691358024 44.23475777777778)"/><use xlink:href="#s" transform="matrix(1,0,0,1,-108,752) translate(150.0382961728395 44.23475777777778)"/><path d="M-113.4 526a6 6 0 0 1 6-6h288a6 6 0 0 1 6 6v89.35a6 6 0 0 1-6 6h-288a6 6 0 0 1-6-6z" stroke="#000" stroke-width="5" fill="#fff"/><use xlink:href="#t" transform="matrix(1,0,0,1,-101.39811711089709,532) translate(51.039945987654306 44.23475777777778)"/><use xlink:href="#u" transform="matrix(1,0,0,1,-101.39811711089709,532) translate(129.56109388888888 44.23475777777778)"/><use xlink:href="#v" transform="matrix(1,0,0,1,-101.39811711089709,532) translate(181.40440956790124 44.23475777777778)"/><path d="M36.6 626.32v86.36" stroke="#1071e5" stroke-width="5" fill="none"/><path d="M39.1 626.38h-5v-2.56h5z" stroke="#1071e5" stroke-width=".05" fill="#1071e5"/><path d="M36.6 729.44l-4.63-14.26h9.27z" stroke="#1071e5" stroke-width="5" fill="#1071e5"/><path d="M296.02 566.14h-82.1" stroke="#1071e5" stroke-width="5" fill="none"/><path d="M298.52 568.64h-2.57v-5h2.57z" stroke="#1071e5" stroke-width=".05" fill="#1071e5"/><path d="M197.15 566.14l14.27-4.64v9.27z" stroke="#1071e5" stroke-width="5" fill="#1071e5"/><path d="M296.05 788.76h-88.73" stroke="#1071e5" stroke-width="5" fill="none"/><path d="M298.55 791.26H296v-5h2.55z" stroke="#1071e5" stroke-width=".05" fill="#1071e5"/><path d="M190.55 788.76l14.27-4.63v9.27z" stroke="#1071e5" stroke-width="5" fill="#1071e5"/><defs><path d="M195 0l-88-114-31 24V0H24v-248h52v113l112-113h60L142-143 257 0h-62" id="w"/><path d="M110-194c64 0 96 36 96 99 0 64-35 99-97 99-61 0-95-36-95-99 0-62 34-99 96-99zm-1 164c35 0 45-28 45-65 0-40-10-65-43-65-34 0-45 26-45 65 0 36 10 65 43 65" id="x"/><path d="M25-224v-37h50v37H25zM75 22c2 45-34 59-81 51V38c22 5 31-5 31-27v-201h50V22" id="y"/><path d="M25-224v-37h50v37H25zM25 0v-190h50V0H25" id="z"/><g id="a"><use transform="matrix(0.06172839506172839,0,0,0.06172839506172839,0,0)" xlink:href="#w"/><use transform="matrix(0.06172839506172839,0,0,0.06172839506172839,15.987654320987653,0)" xlink:href="#x"/><use transform="matrix(0.06172839506172839,0,0,0.06172839506172839,29.50617283950617,0)" xlink:href="#y"/><use transform="matrix(0.06172839506172839,0,0,0.06172839506172839,35.67901234567901,0)" xlink:href="#z"/></g><path d="M135-194c52 0 70 43 70 98 0 56-19 99-73 100-30 1-46-15-58-35L72 0H24l1-261h50v104c11-23 29-37 60-37zM114-30c31 0 40-27 40-66 0-37-7-63-39-63s-41 28-41 65c0 36 8 64 40 64" id="A"/><path d="M85 4C-2 5 27-109 22-190h50c7 57-23 150 33 157 60-5 35-97 40-157h50l1 190h-47c-2-12 1-28-3-38-12 25-28 42-61 42" id="B"/><path d="M25 0v-261h50V0H25" id="C"/><path d="M88-194c31-1 46 15 58 34l-1-101h50l1 261h-48c-2-10 0-23-3-31C134-8 116 4 84 4 32 4 16-41 15-95c0-56 19-97 73-99zm17 164c33 0 40-30 41-66 1-37-9-64-41-64s-38 30-39 65c0 43 13 65 39 65" id="D"/><path d="M185-48c-13 30-37 53-82 52C43 2 14-33 14-96s30-98 90-98c62 0 83 45 84 108H66c0 31 8 55 39 56 18 0 30-7 34-22zm-45-69c5-46-57-63-70-21-2 6-4 13-4 21h74" id="E"/><path d="M135-150c-39-12-60 13-60 57V0H25l-1-190h47c2 13-1 29 3 40 6-28 27-53 61-41v41" id="F"/><g id="b"><use transform="matrix(0.06172839506172839,0,0,0.06172839506172839,0,0)" xlink:href="#A"/><use transform="matrix(0.06172839506172839,0,0,0.06172839506172839,13.518518518518517,0)" xlink:href="#B"/><use transform="matrix(0.06172839506172839,0,0,0.06172839506172839,27.037037037037035,0)" xlink:href="#z"/><use transform="matrix(0.06172839506172839,0,0,0.06172839506172839,33.20987654320987,0)" xlink:href="#C"/><use transform="matrix(0.06172839506172839,0,0,0.06172839506172839,39.382716049382715,0)" xlink:href="#D"/><use transform="matrix(0.06172839506172839,0,0,0.06172839506172839,52.901234567901234,0)" xlink:href="#E"/><use transform="matrix(0.06172839506172839,0,0,0.06172839506172839,65.24691358024691,0)" xlink:href="#F"/></g><path d="M147 0L96-86 75-71V0H25v-261h50v150l67-79h53l-66 74L201 0h-54" id="G"/><path d="M14-72v-43h91v43H14" id="H"/><path d="M190-63c-7 42-38 67-86 67-59 0-84-38-90-98-12-110 154-137 174-36l-49 2c-2-19-15-32-35-32-30 0-35 28-38 64-6 74 65 87 74 30" id="I"/><path d="M135-194c87-1 58 113 63 194h-50c-7-57 23-157-34-157-59 0-34 97-39 157H25l-1-190h47c2 12-1 28 3 38 12-26 28-41 61-42" id="J"/><path d="M115-3C79 11 28 4 28-45v-112H4v-33h27l15-45h31v45h36v33H77v99c-1 23 16 31 38 25v30" id="K"/><path d="M133-34C117-15 103 5 69 4 32 3 11-16 11-54c-1-60 55-63 116-61 1-26-3-47-28-47-18 1-26 9-28 27l-52-2c7-38 36-58 82-57s74 22 75 68l1 82c-1 14 12 18 25 15v27c-30 8-71 5-69-32zm-48 3c29 0 43-24 42-57-32 0-66-3-65 30 0 17 8 27 23 27" id="L"/><g id="c"><use transform="matrix(0.06172839506172839,0,0,0.06172839506172839,0,0)" xlink:href="#G"/><use transform="matrix(0.06172839506172839,0,0,0.06172839506172839,12.345679012345679,0)" xlink:href="#x"/><use transform="matrix(0.06172839506172839,0,0,0.06172839506172839,25.864197530864196,0)" xlink:href="#y"/><use transform="matrix(0.06172839506172839,0,0,0.06172839506172839,32.03703703703704,0)" xlink:href="#z"/><use transform="matrix(0.06172839506172839,0,0,0.06172839506172839,38.20987654320988,0)" xlink:href="#H"/><use transform="matrix(0.06172839506172839,0,0,0.06172839506172839,45.55555555555556,0)" xlink:href="#I"/><use transform="matrix(0.06172839506172839,0,0,0.06172839506172839,57.901234567901234,0)" xlink:href="#x"/><use transform="matrix(0.06172839506172839,0,0,0.06172839506172839,71.41975308641975,0)" xlink:href="#J"/><use transform="matrix(0.06172839506172839,0,0,0.06172839506172839,84.93827160493827,0)" xlink:href="#K"/><use transform="matrix(0.06172839506172839,0,0,0.06172839506172839,92.28395061728395,0)" xlink:href="#L"/><use transform="matrix(0.06172839506172839,0,0,0.06172839506172839,104.62962962962963,0)" xlink:href="#z"/><use transform="matrix(0.06172839506172839,0,0,0.06172839506172839,110.80246913580247,0)" xlink:href="#J"/><use transform="matrix(0.06172839506172839,0,0,0.06172839506172839,124.32098765432099,0)" xlink:href="#E"/><use transform="matrix(0.06172839506172839,0,0,0.06172839506172839,136.66666666666666,0)" xlink:href="#F"/><use transform="matrix(0.06172839506172839,0,0,0.06172839506172839,145.30864197530863,0)" xlink:href="#A"/><use transform="matrix(0.06172839506172839,0,0,0.06172839506172839,158.82716049382714,0)" xlink:href="#B"/><use transform="matrix(0.06172839506172839,0,0,0.06172839506172839,172.34567901234564,0)" xlink:href="#z"/><use transform="matrix(0.06172839506172839,0,0,0.06172839506172839,178.51851851851848,0)" xlink:href="#C"/><use transform="matrix(0.06172839506172839,0,0,0.06172839506172839,184.6913580246913,0)" xlink:href="#D"/></g><path d="M135-194c53 0 70 44 70 98 0 56-19 98-73 100-31 1-45-17-59-34 3 33 2 69 2 105H25l-1-265h48c2 10 0 23 3 31 11-24 29-35 60-35zM114-30c33 0 39-31 40-66 0-38-9-64-40-64-56 0-55 130 0 130" id="M"/><path d="M195-6C206 82 75 100 31 46c-4-6-6-13-8-21l49-6c3 16 16 24 34 25 40 0 42-37 40-79-11 22-30 35-61 35-53 0-70-43-70-97 0-56 18-96 73-97 30 0 46 14 59 34l2-30h47zm-90-29c32 0 41-27 41-63 0-35-9-62-40-62-32 0-39 29-40 63 0 36 9 62 39 62" id="N"/><g id="d"><use transform="matrix(0.06172839506172839,0,0,0.06172839506172839,0,0)" xlink:href="#M"/><use transform="matrix(0.06172839506172839,0,0,0.06172839506172839,13.518518518518517,0)" xlink:href="#C"/><use transform="matrix(0.06172839506172839,0,0,0.06172839506172839,19.691358024691358,0)" xlink:href="#B"/><use transform="matrix(0.06172839506172839,0,0,0.06172839506172839,33.20987654320987,0)" xlink:href="#N"/><use transform="matrix(0.06172839506172839,0,0,0.06172839506172839,46.72839506172839,0)" xlink:href="#z"/><use transform="matrix(0.06172839506172839,0,0,0.06172839506172839,52.901234567901234,0)" xlink:href="#J"/></g><path d="M137-138c1-29-70-34-71-4 15 46 118 7 119 86 1 83-164 76-172 9l43-7c4 19 20 25 44 25 33 8 57-30 24-41C81-84 22-81 20-136c-2-80 154-74 161-7" id="O"/><path d="M114-157C55-157 80-60 75 0H25v-261h50l-1 109c12-26 28-41 61-42 86-1 58 113 63 194h-50c-7-57 23-157-34-157" id="P"/><path d="M121-226c-27-7-43 5-38 36h38v33H83V0H34v-157H6v-33h28c-9-59 32-81 87-68v32" id="Q"/><g id="e"><use transform="matrix(0.06172839506172839,0,0,0.06172839506172839,0,0)" xlink:href="#x"/><use transform="matrix(0.06172839506172839,0,0,0.06172839506172839,13.518518518518517,0)" xlink:href="#M"/><use transform="matrix(0.06172839506172839,0,0,0.06172839506172839,27.037037037037035,0)" xlink:href="#E"/><use transform="matrix(0.06172839506172839,0,0,0.06172839506172839,39.382716049382715,0)" xlink:href="#J"/><use transform="matrix(0.06172839506172839,0,0,0.06172839506172839,52.901234567901234,0)" xlink:href="#O"/><use transform="matrix(0.06172839506172839,0,0,0.06172839506172839,65.24691358024691,0)" xlink:href="#P"/><use transform="matrix(0.06172839506172839,0,0,0.06172839506172839,78.76543209876543,0)" xlink:href="#z"/><use transform="matrix(0.06172839506172839,0,0,0.06172839506172839,84.93827160493827,0)" xlink:href="#Q"/><use transform="matrix(0.06172839506172839,0,0,0.06172839506172839,92.28395061728395,0)" xlink:href="#K"/></g><g id="f"><use transform="matrix(0.06172839506172839,0,0,0.06172839506172839,0,0)" xlink:href="#I"/><use transform="matrix(0.06172839506172839,0,0,0.06172839506172839,12.345679012345679,0)" xlink:href="#C"/><use transform="matrix(0.06172839506172839,0,0,0.06172839506172839,18.51851851851852,0)" xlink:href="#B"/><use transform="matrix(0.06172839506172839,0,0,0.06172839506172839,32.03703703703704,0)" xlink:href="#O"/><use transform="matrix(0.06172839506172839,0,0,0.06172839506172839,44.382716049382715,0)" xlink:href="#K"/><use transform="matrix(0.06172839506172839,0,0,0.06172839506172839,51.72839506172839,0)" xlink:href="#E"/><use transform="matrix(0.06172839506172839,0,0,0.06172839506172839,64.07407407407408,0)" xlink:href="#F"/></g><g id="g"><use transform="matrix(0.06172839506172839,0,0,0.06172839506172839,0,0)" xlink:href="#K"/><use transform="matrix(0.06172839506172839,0,0,0.06172839506172839,7.345679012345679,0)" xlink:href="#E"/><use transform="matrix(0.06172839506172839,0,0,0.06172839506172839,19.691358024691358,0)" xlink:href="#G"/><use transform="matrix(0.06172839506172839,0,0,0.06172839506172839,32.03703703703704,0)" xlink:href="#K"/><use transform="matrix(0.06172839506172839,0,0,0.06172839506172839,39.382716049382715,0)" xlink:href="#x"/><use transform="matrix(0.06172839506172839,0,0,0.06172839506172839,52.901234567901234,0)" xlink:href="#J"/></g><g id="h"><use transform="matrix(0.06172839506172839,0,0,0.06172839506172839,0,0)" xlink:href="#M"/><use transform="matrix(0.06172839506172839,0,0,0.06172839506172839,13.518518518518517,0)" xlink:href="#z"/><use transform="matrix(0.06172839506172839,0,0,0.06172839506172839,19.691358024691358,0)" xlink:href="#M"/><use transform="matrix(0.06172839506172839,0,0,0.06172839506172839,33.20987654320987,0)" xlink:href="#E"/><use transform="matrix(0.06172839506172839,0,0,0.06172839506172839,45.55555555555555,0)" xlink:href="#C"/><use transform="matrix(0.06172839506172839,0,0,0.06172839506172839,51.72839506172839,0)" xlink:href="#z"/><use transform="matrix(0.06172839506172839,0,0,0.06172839506172839,57.901234567901234,0)" xlink:href="#J"/><use transform="matrix(0.06172839506172839,0,0,0.06172839506172839,71.41975308641975,0)" xlink:href="#E"/></g><g id="i"><use transform="matrix(0.06172839506172839,0,0,0.06172839506172839,0,0)" xlink:href="#K"/><use transform="matrix(0.06172839506172839,0,0,0.06172839506172839,7.345679012345679,0)" xlink:href="#L"/><use transform="matrix(0.06172839506172839,0,0,0.06172839506172839,19.691358024691358,0)" xlink:href="#O"/><use transform="matrix(0.06172839506172839,0,0,0.06172839506172839,32.03703703703704,0)" xlink:href="#G"/></g><path d="M220-157c-53 9-28 100-34 157h-49v-107c1-27-5-49-29-50C55-147 81-57 75 0H25l-1-190h47c2 12-1 28 3 38 10-53 101-56 108 0 13-22 24-43 59-42 82 1 51 116 57 194h-49v-107c-1-25-5-48-29-50" id="R"/><g id="j"><use transform="matrix(0.06172839506172839,0,0,0.06172839506172839,0,0)" xlink:href="#z"/><use transform="matrix(0.06172839506172839,0,0,0.06172839506172839,6.172839506172839,0)" xlink:href="#R"/><use transform="matrix(0.06172839506172839,0,0,0.06172839506172839,25.925925925925924,0)" xlink:href="#L"/><use transform="matrix(0.06172839506172839,0,0,0.06172839506172839,38.2716049382716,0)" xlink:href="#N"/><use transform="matrix(0.06172839506172839,0,0,0.06172839506172839,51.79012345679012,0)" xlink:href="#E"/></g><g id="k"><use transform="matrix(0.06049395061728395,0,0,0.06049395061728395,0,0)" xlink:href="#w"/><use transform="matrix(0.06049395061728395,0,0,0.06049395061728395,15.667933209876542,0)" xlink:href="#x"/><use transform="matrix(0.06049395061728395,0,0,0.06049395061728395,28.916108395061727,0)" xlink:href="#y"/><use transform="matrix(0.06049395061728395,0,0,0.06049395061728395,34.965503456790124,0)" xlink:href="#z"/></g><g id="l"><use transform="matrix(0.06049395061728395,0,0,0.06049395061728395,0,0)" xlink:href="#P"/><use transform="matrix(0.06049395061728395,0,0,0.06049395061728395,13.248175185185186,0)" xlink:href="#B"/><use transform="matrix(0.06049395061728395,0,0,0.06049395061728395,26.496350370370372,0)" xlink:href="#A"/></g><g id="m"><use transform="matrix(0.06049395061728395,0,0,0.06049395061728395,0,0)" xlink:href="#I"/><use transform="matrix(0.06049395061728395,0,0,0.06049395061728395,12.09879012345679,0)" xlink:href="#C"/><use transform="matrix(0.06049395061728395,0,0,0.06049395061728395,18.148185185185184,0)" xlink:href="#z"/><use transform="matrix(0.06049395061728395,0,0,0.06049395061728395,24.19758024691358,0)" xlink:href="#E"/><use transform="matrix(0.06049395061728395,0,0,0.06049395061728395,36.29637037037037,0)" xlink:href="#J"/><use transform="matrix(0.06049395061728395,0,0,0.06049395061728395,49.54454555555556,0)" xlink:href="#K"/></g><path d="M67-93c0 74 22 123 53 168H70C40 30 18-18 18-93s22-123 52-168h50c-32 44-53 94-53 168" id="S"/><path d="M102-93c0 74-22 123-52 168H0C30 29 54-18 53-93c0-74-22-123-53-168h50c30 45 52 94 52 168" id="T"/><g id="n"><use transform="matrix(0.06049395061728395,0,0,0.06049395061728395,0,0)" xlink:href="#S"/><use transform="matrix(0.06049395061728395,0,0,0.06049395061728395,7.19878012345679,0)" xlink:href="#Q"/><use transform="matrix(0.06049395061728395,0,0,0.06049395061728395,14.39756024691358,0)" xlink:href="#E"/><use transform="matrix(0.06049395061728395,0,0,0.06049395061728395,26.496350370370372,0)" xlink:href="#D"/><use transform="matrix(0.06049395061728395,0,0,0.06049395061728395,39.744525555555555,0)" xlink:href="#M"/><use transform="matrix(0.06049395061728395,0,0,0.06049395061728395,52.992700740740744,0)" xlink:href="#G"/><use transform="matrix(0.06049395061728395,0,0,0.06049395061728395,65.09149086419754,0)" xlink:href="#N"/><use transform="matrix(0.06049395061728395,0,0,0.06049395061728395,78.33966604938273,0)" xlink:href="#T"/></g><g id="o"><use transform="matrix(0.06049395061728395,0,0,0.06049395061728395,0,0)" xlink:href="#x"/><use transform="matrix(0.06049395061728395,0,0,0.06049395061728395,13.248175185185186,0)" xlink:href="#O"/><use transform="matrix(0.06049395061728395,0,0,0.06049395061728395,25.346965308641977,0)" xlink:href="#A"/><use transform="matrix(0.06049395061728395,0,0,0.06049395061728395,38.59514049382716,0)" xlink:href="#O"/><use transform="matrix(0.06049395061728395,0,0,0.06049395061728395,50.693930617283954,0)" xlink:href="#H"/><use transform="matrix(0.06049395061728395,0,0,0.06049395061728395,57.892710740740746,0)" xlink:href="#I"/><use transform="matrix(0.06049395061728395,0,0,0.06049395061728395,69.99150086419753,0)" xlink:href="#C"/><use transform="matrix(0.06049395061728395,0,0,0.06049395061728395,76.04089592592592,0)" xlink:href="#z"/><use transform="matrix(0.06049395061728395,0,0,0.06049395061728395,82.09029098765431,0)" xlink:href="#E"/><use transform="matrix(0.06049395061728395,0,0,0.06049395061728395,94.18908111111111,0)" xlink:href="#J"/><use transform="matrix(0.06049395061728395,0,0,0.06049395061728395,107.4372562962963,0)" xlink:href="#K"/></g><g id="p"><use transform="matrix(0.06049395061728395,0,0,0.06049395061728395,0,0)" xlink:href="#L"/><use transform="matrix(0.06049395061728395,0,0,0.06049395061728395,12.09879012345679,0)" xlink:href="#K"/><use transform="matrix(0.06049395061728395,0,0,0.06049395061728395,19.29757024691358,0)" xlink:href="#x"/><use transform="matrix(0.06049395061728395,0,0,0.06049395061728395,32.54574543209877,0)" xlink:href="#R"/><use transform="matrix(0.06049395061728395,0,0,0.06049395061728395,51.903809629629635,0)" xlink:href="#z"/><use transform="matrix(0.06049395061728395,0,0,0.06049395061728395,57.95320469135803,0)" xlink:href="#I"/><use transform="matrix(0.06049395061728395,0,0,0.06049395061728395,70.05199481481482,0)" xlink:href="#H"/><use transform="matrix(0.06049395061728395,0,0,0.06049395061728395,77.2507749382716,0)" xlink:href="#F"/><use transform="matrix(0.06049395061728395,0,0,0.06049395061728395,85.71992802469136,0)" xlink:href="#E"/><use transform="matrix(0.06049395061728395,0,0,0.06049395061728395,97.81871814814815,0)" xlink:href="#L"/><use transform="matrix(0.06049395061728395,0,0,0.06049395061728395,109.91750827160494,0)" xlink:href="#I"/><use transform="matrix(0.06049395061728395,0,0,0.06049395061728395,122.01629839506174,0)" xlink:href="#K"/><use transform="matrix(0.06049395061728395,0,0,0.06049395061728395,129.21507851851854,0)" xlink:href="#x"/><use transform="matrix(0.06049395061728395,0,0,0.06049395061728395,142.4632537037037,0)" xlink:href="#F"/></g><g id="q"><use transform="matrix(0.06049395061728395,0,0,0.06049395061728395,0,0)" xlink:href="#D"/><use transform="matrix(0.06049395061728395,0,0,0.06049395061728395,13.248175185185186,0)" xlink:href="#x"/><use transform="matrix(0.06049395061728395,0,0,0.06049395061728395,26.496350370370372,0)" xlink:href="#I"/><use transform="matrix(0.06049395061728395,0,0,0.06049395061728395,38.59514049382716,0)" xlink:href="#G"/><use transform="matrix(0.06049395061728395,0,0,0.06049395061728395,50.693930617283954,0)" xlink:href="#E"/><use transform="matrix(0.06049395061728395,0,0,0.06049395061728395,62.792720740740755,0)" xlink:href="#F"/><use transform="matrix(0.06049395061728395,0,0,0.06049395061728395,71.2618738271605,0)" xlink:href="#Q"/><use transform="matrix(0.06049395061728395,0,0,0.06049395061728395,78.46065395061729,0)" xlink:href="#z"/><use transform="matrix(0.06049395061728395,0,0,0.06049395061728395,84.51004901234568,0)" xlink:href="#C"/><use transform="matrix(0.06049395061728395,0,0,0.06049395061728395,90.55944407407407,0)" xlink:href="#E"/><use transform="matrix(0.06049395061728395,0,0,0.06049395061728395,102.65823419753086,0)" xlink:href="#H"/><use transform="matrix(0.06049395061728395,0,0,0.06049395061728395,109.85701432098764,0)" xlink:href="#M"/><use transform="matrix(0.06049395061728395,0,0,0.06049395061728395,123.10518950617283,0)" xlink:href="#L"/><use transform="matrix(0.06049395061728395,0,0,0.06049395061728395,135.20397962962963,0)" xlink:href="#F"/><use transform="matrix(0.06049395061728395,0,0,0.06049395061728395,143.6731327160494,0)" xlink:href="#O"/><use transform="matrix(0.06049395061728395,0,0,0.06049395061728395,155.77192283950617,0)" xlink:href="#E"/></g><g id="r"><use transform="matrix(0.06049395061728395,0,0,0.06049395061728395,0,0)" xlink:href="#I"/><use transform="matrix(0.06049395061728395,0,0,0.06049395061728395,12.09879012345679,0)" xlink:href="#x"/><use transform="matrix(0.06049395061728395,0,0,0.06049395061728395,25.346965308641977,0)" xlink:href="#J"/><use transform="matrix(0.06049395061728395,0,0,0.06049395061728395,38.59514049382716,0)" xlink:href="#K"/><use transform="matrix(0.06049395061728395,0,0,0.06049395061728395,45.79392061728395,0)" xlink:href="#L"/><use transform="matrix(0.06049395061728395,0,0,0.06049395061728395,57.89271074074074,0)" xlink:href="#z"/><use transform="matrix(0.06049395061728395,0,0,0.06049395061728395,63.942105802469136,0)" xlink:href="#J"/><use transform="matrix(0.06049395061728395,0,0,0.06049395061728395,77.19028098765432,0)" xlink:href="#E"/><use transform="matrix(0.06049395061728395,0,0,0.06049395061728395,89.28907111111111,0)" xlink:href="#F"/></g><path d="M123 10C108 53 80 86 19 72V37c35 8 53-11 59-39L3-190h52l48 148c12-52 28-100 44-148h51" id="U"/><g id="s"><use transform="matrix(0.06049395061728395,0,0,0.06049395061728395,0,0)" xlink:href="#F"/><use transform="matrix(0.06049395061728395,0,0,0.06049395061728395,8.469153086419754,0)" xlink:href="#E"/><use transform="matrix(0.06049395061728395,0,0,0.06049395061728395,20.567943209876546,0)" xlink:href="#N"/><use transform="matrix(0.06049395061728395,0,0,0.06049395061728395,33.816118395061736,0)" xlink:href="#z"/><use transform="matrix(0.06049395061728395,0,0,0.06049395061728395,39.86551345679013,0)" xlink:href="#O"/><use transform="matrix(0.06049395061728395,0,0,0.06049395061728395,51.96430358024692,0)" xlink:href="#K"/><use transform="matrix(0.06049395061728395,0,0,0.06049395061728395,59.16308370370371,0)" xlink:href="#F"/><use transform="matrix(0.06049395061728395,0,0,0.06049395061728395,67.63223679012347,0)" xlink:href="#U"/></g><g id="t"><use transform="matrix(0.06049395061728395,0,0,0.06049395061728395,0,0)" xlink:href="#F"/><use transform="matrix(0.06049395061728395,0,0,0.06049395061728395,8.469153086419754,0)" xlink:href="#E"/><use transform="matrix(0.06049395061728395,0,0,0.06049395061728395,20.567943209876546,0)" xlink:href="#R"/><use transform="matrix(0.06049395061728395,0,0,0.06049395061728395,39.92600740740741,0)" xlink:href="#x"/><use transform="matrix(0.06049395061728395,0,0,0.06049395061728395,53.1741825925926,0)" xlink:href="#K"/><use transform="matrix(0.06049395061728395,0,0,0.06049395061728395,60.37296271604939,0)" xlink:href="#E"/></g><g id="u"><use transform="matrix(0.06049395061728395,0,0,0.06049395061728395,0,0)" xlink:href="#P"/><use transform="matrix(0.06049395061728395,0,0,0.06049395061728395,13.248175185185186,0)" xlink:href="#x"/><use transform="matrix(0.06049395061728395,0,0,0.06049395061728395,26.496350370370372,0)" xlink:href="#O"/><use transform="matrix(0.06049395061728395,0,0,0.06049395061728395,38.59514049382716,0)" xlink:href="#K"/></g><path d="M128 0H69L1-190h53L99-40l48-150h52" id="V"/><g id="v"><use transform="matrix(0.06049395061728395,0,0,0.06049395061728395,0,0)" xlink:href="#V"/><use transform="matrix(0.06049395061728395,0,0,0.06049395061728395,12.09879012345679,0)" xlink:href="#R"/><use transform="matrix(0.06049395061728395,0,0,0.06049395061728395,31.456854320987656,0)" xlink:href="#O"/></g></defs></g></svg>