<svg xmlns="http://www.w3.org/2000/svg" xmlns:xlink="http://www.w3.org/1999/xlink" xmlns:lucid="lucid" width="2248.5" height="1340"><g transform="translate(268.5 -100)" lucid:page-tab-id="0_0"><path d="M-1806.87 0h5484.6v2581.67h-5484.6z" fill="#fff"/><path d="M1140 246a6 6 0 0 1 6-6h808a6 6 0 0 1 6 6v265.7a6 6 0 0 1-6 6h-808a6 6 0 0 1-6-6z" stroke="#000" stroke-width="5" fill-opacity="0"/><use xlink:href="#a" transform="matrix(1,0,0,1,1148,248) translate(313.2654320987655 17.77777777777778)"/><use xlink:href="#b" transform="matrix(1,0,0,1,1148,248) translate(393.3888888888889 17.77777777777778)"/><use xlink:href="#c" transform="matrix(1,0,0,1,1148,248) translate(446.2901234567902 17.77777777777778)"/><path d="M1140 646a6 6 0 0 1 6-6h648a6 6 0 0 1 6 6v528a6 6 0 0 1-6 6h-648a6 6 0 0 1-6-6z" stroke="#000" stroke-width="5" fill-opacity="0"/><use xlink:href="#d" transform="matrix(1,0,0,1,1148,648) translate(246.16666666666669 17.77777777777778)"/><use xlink:href="#e" transform="matrix(1,0,0,1,1148,648) translate(316.4753086419753 17.77777777777778)"/><path d="M1170 686a6 6 0 0 1 6-6h568a6 6 0 0 1 6 6v448a6 6 0 0 1-6 6h-568a6 6 0 0 1-6-6z" stroke="#000" stroke-width="5" fill-opacity="0"/><use xlink:href="#f" transform="matrix(1,0,0,1,1178,688) translate(202.4320987654321 17.77777777777778)"/><path d="M-30 750.8a6 6 0 0 1 6-6h458a6 6 0 0 1 6 6V1414a6 6 0 0 1-6 6H-24a6 6 0 0 1-6-6z" stroke="#000" stroke-width="3" fill-opacity="0"/><use xlink:href="#g" transform="matrix(1,0,0,1,-22,752.7999199999999) translate(178.35802469135803 17.77777777777778)"/><use xlink:href="#h" transform="matrix(1,0,0,1,-22,752.7999199999999) translate(222.74074074074076 17.77777777777778)"/><path d="M-80 126a6 6 0 0 1 6-6H74a6 6 0 0 1 6 6v108a6 6 0 0 1-6 6H-74a6 6 0 0 1-6-6z" stroke="#000" stroke-width="3" fill="#fff"/><use xlink:href="#i" transform="matrix(1,0,0,1,-68,132) translate(4.574074074074076 53.77777777777778)"/><path d="M-100 346a6 6 0 0 1 6-6h428a6 6 0 0 1 6 6v228a6 6 0 0 1-6 6H-94a6 6 0 0 1-6-6z" stroke="#000" stroke-width="3" fill-opacity="0"/><use xlink:href="#g" transform="matrix(1,0,0,1,-92,348) translate(167.61728395061726 17.77777777777778)"/><use xlink:href="#j" transform="matrix(1,0,0,1,-92,348) translate(212 17.77777777777778)"/><path d="M-77.54 423.7a6 6 0 0 1 6-6h368a6 6 0 0 1 6 6v88a6 6 0 0 1-6 6h-368a6 6 0 0 1-6-6z" stroke="#000" stroke-width="5" fill="#fff"/><use xlink:href="#k" transform="matrix(1,0,0,1,-65.53994856825193,429.6999466666665) translate(156.17773222222223 43.89100777777778)"/><path d="M520 126a6 6 0 0 1 6-6h528a6 6 0 0 1 6 6v588a6 6 0 0 1-6 6H526a6 6 0 0 1-6-6z" stroke="#000" stroke-width="5" fill-opacity="0"/><use xlink:href="#l" transform="matrix(1,0,0,1,528,128) translate(170.85802469135803 17.77777777777778)"/><use xlink:href="#m" transform="matrix(1,0,0,1,528,128) translate(280.4259259259259 17.77777777777778)"/><path d="M580 186a6 6 0 0 1 6-6h428a6 6 0 0 1 6 6v488a6 6 0 0 1-6 6H586a6 6 0 0 1-6-6z" stroke="#000" stroke-width="5" fill-opacity="0"/><use xlink:href="#n" transform="matrix(1,0,0,1,588,188) translate(131.5679012345679 17.77777777777778)"/><use xlink:href="#o" transform="matrix(1,0,0,1,588,188) translate(208.66666666666666 17.77777777777778)"/><path d="M-147.5 479.67l.05.65.13.53.2.5.3.47.35.42.42.36.46.28.52.2.44.12 18.34.07-.02 5-18.92-.07-1.4-.34-1.22-.5-1.14-.7-1.02-.87-.86-1.03-.7-1.14-.5-1.23-.32-1.3-.1-1.23.05-193.84h5zm63.54-297.17h-59.94l-.65.05-.53.13-.5.2-.47.3-.42.35-.36.42-.28.46-.22.52-.1.44-.02 74h-5v-74.6l.35-1.4.52-1.22.7-1.14.86-1.02 1.02-.86 1.14-.7 1.23-.5 1.3-.32 1.23-.1h60.14z" stroke="#1071e5" stroke-width=".05" fill="#1071e5"/><path d="M-81.46 182.5h-2.57v-5h2.56z" fill="#1071e5"/><path d="M-81.44 182.53h-2.6v-5.06h2.6zm-2.56-5v4.94h2.5v-4.94z" stroke="#1071e5" stroke-width=".05" fill="#1071e5"/><path d="M-109.55 485.77l-14.26 4.64v-9.26z" fill="#1071e5"/><path d="M-101.45 485.77l-24.86 8.08V477.7zm-19.86 1.2l3.66-1.2-3.67-1.2z" stroke="#1071e5" stroke-width=".05" fill="#1071e5"/><use xlink:href="#p" transform="matrix(1,0,0,1,-242.5,259.36397117512587) translate(0 17.77777777777778)"/><use xlink:href="#q" transform="matrix(1,0,0,1,-242.5,259.36397117512587) translate(24.691358024691358 17.77777777777778)"/><use xlink:href="#r" transform="matrix(1,0,0,1,-242.5,259.36397117512587) translate(96.23456790123456 17.77777777777778)"/><use xlink:href="#s" transform="matrix(1,0,0,1,-242.5,259.36397117512587) translate(140.61728395061726 17.77777777777778)"/><path d="M660 246a6 6 0 0 1 6-6h255.86a6 6 0 0 1 6 6v368a6 6 0 0 1-6 6H666a6 6 0 0 1-6-6z" stroke="#000" stroke-width="5" fill="#fff"/><use xlink:href="#n" transform="matrix(1,0,0,1,672,252) translate(55.08641975308643 184.65277777777777)"/><use xlink:href="#t" transform="matrix(1,0,0,1,672,252) translate(132.1851851851852 184.65277777777777)"/><path d="M1180 306a6 6 0 0 1 6-6h138a6 6 0 0 1 6 6v118.4a6 6 0 0 1-6 6h-138a6 6 0 0 1-6-6z" stroke="#000" stroke-width="5" fill="#fff"/><use xlink:href="#u" transform="matrix(1,0,0,1,1192,312) translate(26.703629629629624 44.17225777777778)"/><use xlink:href="#v" transform="matrix(1,0,0,1,1192,312) translate(37.078342160493825 70.30564444444445)"/><path d="M1198.98 750.8a6 6 0 0 1 6-6H1714a6 6 0 0 1 6 6V794a6 6 0 0 1-6 6h-509.02a6 6 0 0 1-6-6z" stroke="#000" stroke-width="5" fill="#fff"/><use xlink:href="#w" transform="matrix(1,0,0,1,1210.9764955839873,756.7999199999999) translate(130.55284469135802 19.42225777777778)"/><use xlink:href="#x" transform="matrix(1,0,0,1,1210.9764955839873,756.7999199999999) translate(199.45545444444446 19.42225777777778)"/><use xlink:href="#y" transform="matrix(1,0,0,1,1210.9764955839873,756.7999199999999) translate(294.85441456790124 19.42225777777778)"/><path d="M1198.98 826a6 6 0 0 1 6-6H1714a6 6 0 0 1 6 6v43.2a6 6 0 0 1-6 6h-509.02a6 6 0 0 1-6-6z" stroke="#000" stroke-width="5" fill="#fff"/><use xlink:href="#w" transform="matrix(1,0,0,1,1210.9764955839873,832) translate(126.37876209876542 19.42225777777778)"/><use xlink:href="#x" transform="matrix(1,0,0,1,1210.9764955839873,832) translate(195.28137185185184 19.42225777777778)"/><use xlink:href="#z" transform="matrix(1,0,0,1,1210.9764955839873,832) translate(290.68033197530866 19.42225777777778)"/><path d="M1200 901.2a6 6 0 0 1 6-6h509.02a6 6 0 0 1 6 6v43.2a6 6 0 0 1-6 6H1206a6 6 0 0 1-6-6z" stroke="#000" stroke-width="5" fill="#fff"/><use xlink:href="#w" transform="matrix(1,0,0,1,1212,907.2000800000001) translate(136.6022397530864 19.42225777777778)"/><use xlink:href="#x" transform="matrix(1,0,0,1,1212,907.2000800000001) translate(205.50484950617283 19.42225777777778)"/><use xlink:href="#A" transform="matrix(1,0,0,1,1212,907.2000800000001) translate(300.9038096296296 19.42225777777778)"/><path d="M1197.95 976.4a6 6 0 0 1 6-6h509.03a6 6 0 0 1 6 6v43.2a6 6 0 0 1-6 6h-509.03a6 6 0 0 1-6-6z" stroke="#000" stroke-width="5" fill="#fff"/><use xlink:href="#w" transform="matrix(1,0,0,1,1209.9529911679751,982.4001600000001) translate(125.74357561728394 19.42225777777778)"/><use xlink:href="#x" transform="matrix(1,0,0,1,1209.9529911679751,982.4001600000001) translate(194.64618537037035 19.42225777777778)"/><use xlink:href="#B" transform="matrix(1,0,0,1,1209.9529911679751,982.4001600000001) translate(290.04514549382714 19.42225777777778)"/><path d="M1200 1066a6 6 0 0 1 6-6h509.02a6 6 0 0 1 6 6v43.2a6 6 0 0 1-6 6H1206a6 6 0 0 1-6-6z" stroke="#000" stroke-width="5" fill="#fff"/><use xlink:href="#C" transform="matrix(1,0,0,1,1212,1072) translate(185.60233975308643 19.42225777777778)"/><use xlink:href="#D" transform="matrix(1,0,0,1,1212,1072) translate(281.0012998765432 19.42225777777778)"/><path d="M552.7 624.06v5H465v-5zm-584.34-3.6l.05.65.14.54.2.5.3.47.35.43.4.35.48.3.5.2.44.1 271.93.04v5l-272.52-.04-1.4-.33-1.23-.5-1.14-.7-1-.88-.88-1-.7-1.15-.5-1.23-.32-1.3-.1-1.24V584h5z" stroke="#1071e5" stroke-width=".05" fill="#1071e5"/><path d="M-31.64 584.05h-5v-2.56h5z" fill="#1071e5"/><path d="M-31.6 584.08h-5.06v-2.6l5.05-.02zm-5-2.56v2.5h4.94v-2.5z" stroke="#1071e5" stroke-width=".05" fill="#1071e5"/><path d="M569.48 626.56l-14.27 4.63v-9.28z" fill="#1071e5"/><path d="M577.57 626.56l-24.86 8.08v-16.16zm-19.86 1.2l3.7-1.2-3.7-1.2z" stroke="#1071e5" stroke-width=".05" fill="#1071e5"/><use xlink:href="#E" transform="matrix(1,0,0,1,243.15315554078353,613.2254289630793) translate(0 17.77777777777778)"/><use xlink:href="#q" transform="matrix(1,0,0,1,243.15315554078353,613.2254289630793) translate(24.691358024691358 17.77777777777778)"/><use xlink:href="#F" transform="matrix(1,0,0,1,243.15315554078353,613.2254289630793) translate(96.23456790123456 17.77777777777778)"/><use xlink:href="#G" transform="matrix(1,0,0,1,243.15315554078353,613.2254289630793) translate(186.1728395061728 17.77777777777778)"/><path d="M1380 306a6 6 0 0 1 6-6h138a6 6 0 0 1 6 6v118.4a6 6 0 0 1-6 6h-138a6 6 0 0 1-6-6z" stroke="#000" stroke-width="5" fill="#fff"/><use xlink:href="#H" transform="matrix(1,0,0,1,1392,312.00000000000006) translate(22.529547037037034 44.17225777777778)"/><use xlink:href="#v" transform="matrix(1,0,0,1,1392,312.00000000000006) translate(37.078342160493825 70.30564444444445)"/><path d="M1580 306a6 6 0 0 1 6-6h138a6 6 0 0 1 6 6v118.4a6 6 0 0 1-6 6h-138a6 6 0 0 1-6-6z" stroke="#000" stroke-width="5" fill="#fff"/><use xlink:href="#I" transform="matrix(1,0,0,1,1592,312) translate(3.806669320987652 57.54725777777778)"/><use xlink:href="#v" transform="matrix(1,0,0,1,1592,312) translate(70.350015 57.54725777777778)"/><path d="M1780 306a6 6 0 0 1 6-6h138a6 6 0 0 1 6 6v118.4a6 6 0 0 1-6 6h-138a6 6 0 0 1-6-6z" stroke="#000" stroke-width="5" fill="#fff"/><use xlink:href="#J" transform="matrix(1,0,0,1,1792,312) translate(21.89436055555555 44.17225777777778)"/><use xlink:href="#v" transform="matrix(1,0,0,1,1792,312) translate(37.078342160493825 70.30564444444445)"/><path d="M1257.5 613.9l.05.65.13.53.2.5.3.47.35.42.42.36.46.28.52.22.44.1 496.2.08 1.23.1 1.3.3 1.23.52 1.13.7 1.02.86.87 1.02.7 1.14.5 1.23.34 1.4.06 141.73-.1 1.23-.3 1.3-.52 1.23-.7 1.14-.86 1.02-1.02.86-1.13.7-1.24.5-1.4.34-10.36.08-.04-5 9.8-.07.44-.1.5-.22.48-.27.4-.36.37-.42.28-.46.2-.52.13-.53.06-.65-.07-140.94-.1-.44-.22-.5-.3-.47-.35-.42-.4-.36-.48-.28-.5-.22-.54-.13-.63-.05-496.6-.07-1.4-.34-1.23-.52-1.14-.7-1.02-.86-.86-1.02-.7-1.14-.5-1.23-.32-1.3-.1-1.23v-44.76h5zm0-71.22h-5V435.36h5z" stroke="#1071e5" stroke-width=".05" fill="#1071e5"/><path d="M1257.5 435.43h-5v-2.57h5z" fill="#1071e5"/><path d="M1257.53 435.45h-5.06v-2.6h5.06zm-5-2.56v2.5h4.94v-2.5z" stroke="#1071e5" stroke-width=".05" fill="#1071e5"/><path d="M1744.82 777.04l-14.27-4.64 14.27-4.64z" fill="#1071e5"/><path d="M1747.32 780.48l-24.86-8.08 24.86-8.08zm-8.68-8.08l3.68 1.2v-2.4z" stroke="#1071e5" stroke-width=".05" fill="#1071e5"/><use xlink:href="#K" transform="matrix(1,0,0,1,1216.2037037037037,542.6771653543308) translate(0 17.77777777777778)"/><use xlink:href="#L" transform="matrix(1,0,0,1,1216.2037037037037,542.6771653543308) translate(24.691358024691358 17.77777777777778)"/><path d="M1457.5 583.9l.05.65.13.53.2.5.3.47.35.42.42.36.46.28.52.22.44.1 353.74.08 1.23.1 1.3.3 1.23.52 1.14.7 1.02.86.86 1.02.7 1.14.5 1.23.35 1.4.07 246.93-.1 1.23-.3 1.3-.52 1.23-.7 1.14-.86 1.02-1.02.86-1.14.7-1.23.5-1.4.35-67.9.07v-5l67.3-.07.45-.1.5-.22.47-.27.42-.36.36-.42.28-.46.22-.52.13-.53.05-.65-.07-246.14-.1-.44-.22-.5-.27-.47-.36-.42-.42-.36-.46-.28-.52-.22-.53-.13-.65-.05-354.13-.07-1.4-.34-1.23-.52-1.14-.7-1.02-.86-.86-1.02-.7-1.14-.5-1.23-.32-1.3-.1-1.23v-14.76h5zm0-41.22h-5V435.36h5z" stroke="#1071e5" stroke-width=".05" fill="#1071e5"/><path d="M1457.5 435.43h-5v-2.57h5z" fill="#1071e5"/><path d="M1457.53 435.45h-5.06v-2.6h5.06zm-5-2.56v2.5h4.94v-2.5z" stroke="#1071e5" stroke-width=".05" fill="#1071e5"/><path d="M1744.82 852.24l-14.27-4.64 14.27-4.64z" fill="#1071e5"/><path d="M1747.32 855.68l-24.86-8.08 24.86-8.08zm-8.68-8.08l3.68 1.2v-2.4z" stroke="#1071e5" stroke-width=".05" fill="#1071e5"/><use xlink:href="#K" transform="matrix(1,0,0,1,1416.2037037037037,542.6771653543308) translate(0 17.77777777777778)"/><use xlink:href="#L" transform="matrix(1,0,0,1,1416.2037037037037,542.6771653543308) translate(24.691358024691358 17.77777777777778)"/><path d="M1657.5 533.9l.05.65.13.53.2.5.3.47.35.42.42.36.46.28.52.22.44.1 193.74.08 1.23.1 1.3.3 1.23.52 1.14.7 1.02.86.86 1.02.7 1.14.5 1.23.35 1.4.07 372.13-.1 1.23-.3 1.3-.52 1.23-.7 1.14-.86 1.02-1.02.86-1.14.7-1.23.5-1.4.35-106.88.07v-5l106.3-.07.43-.1.5-.22.47-.27.42-.36.36-.42.28-.46.22-.52.13-.53.05-.65-.07-371.34-.1-.44-.22-.5-.27-.47-.36-.42-.42-.36-.46-.28-.52-.22-.53-.13-.65-.05-194.13-.07-1.4-.34-1.23-.52-1.14-.7-1.02-.86-.86-1.02-.7-1.14-.5-1.23-.32-1.3-.1-1.23v-48.75h5zm0-75.2h-5v-23.34h5z" stroke="#1071e5" stroke-width=".05" fill="#1071e5"/><path d="M1657.5 435.43h-5v-2.57h5z" fill="#1071e5"/><path d="M1657.53 435.45h-5.06v-2.6h5.06zm-5-2.56v2.5h4.94v-2.5z" stroke="#1071e5" stroke-width=".05" fill="#1071e5"/><path d="M1745.84 927.44l-14.26-4.64 14.26-4.64z" fill="#1071e5"/><path d="M1748.34 930.88l-24.85-8.08 24.84-8.08zm-8.67-8.08l3.67 1.2v-2.4z" stroke="#1071e5" stroke-width=".05" fill="#1071e5"/><use xlink:href="#K" transform="matrix(1,0,0,1,1616.2037037037037,458.6876640419948) translate(0 17.77777777777778)"/><use xlink:href="#L" transform="matrix(1,0,0,1,1616.2037037037037,458.6876640419948) translate(24.691358024691358 17.77777777777778)"/><path d="M1904.6 992.1l-.1 1.23-.3 1.3-.5 1.23-.7 1.14-.88 1.02-1 .86-1.15.7-1.23.5-1.4.35-151.04.07v-5l150.45-.07.44-.1.5-.22.46-.27.42-.36.35-.42.3-.46.2-.52.13-.53.05-.65V487.03h5zm0-531.73h-5v-25.03h5z" stroke="#1071e5" stroke-width=".05" fill="#1071e5"/><path d="M1904.6 435.4h-5v-2.56h5z" fill="#1071e5"/><path d="M1904.63 435.43h-5.05v-2.62h5.05zm-5-2.57v2.52h4.95v-2.52z" stroke="#1071e5" stroke-width=".05" fill="#1071e5"/><path d="M1743.8 1002.64l-14.27-4.64 14.27-4.64z" fill="#1071e5"/><path d="M1746.3 1006.08l-24.86-8.08 24.86-8.08zm-8.68-8.08l3.68 1.2v-2.4z" stroke="#1071e5" stroke-width=".05" fill="#1071e5"/><use xlink:href="#K" transform="matrix(1,0,0,1,1863.3118602586549,460.36745406824156) translate(0 17.77777777777778)"/><use xlink:href="#L" transform="matrix(1,0,0,1,1863.3118602586549,460.36745406824156) translate(24.691358024691358 17.77777777777778)"/><path d="M1079.93 200.1H975.65l-.44.1-.5.22-.46.3-.42.34-.36.42-.28.47-.2.5-.14.53-.05.65-.08 58.7-.34 1.38-.5 1.25-.7 1.14-.87 1-1 .87-1.15.7-1.23.5-1.3.32-1.23.1h-31.6v-5h31.4l.64-.07.53-.12.5-.2.47-.3.42-.35.35-.4.3-.48.2-.5.12-.44.07-58.3.1-1.23.3-1.3.5-1.23.7-1.14.87-1.02 1.02-.85 1.13-.7 1.23-.5 1.4-.35h104.87zm533.63-4.97l1.3.3 1.23.52 1.13.7 1 .86.88 1.03.7 1.14.52 1.23.33 1.4.08 10.36-5 .03-.08-9.8-.1-.45-.2-.5-.3-.47-.35-.42-.42-.35-.47-.28-.5-.2-.53-.14-.64-.05-278.37.03v-5l278.56-.03z" stroke="#1071e5" stroke-width=".05" fill="#1071e5"/><path d="M932.85 269.6h-2.56v-5h2.55z" fill="#1071e5"/><path d="M932.88 269.6h-2.62v-5.04h2.62zm-2.57-5v4.96h2.53v-4.95z" stroke="#1071e5" stroke-width=".05" fill="#1071e5"/><path d="M1618.23 229.44l-4.64-14.27h9.26z" fill="#1071e5"/><path d="M1618.23 237.53l-8.08-24.86h16.15zm-1.2-19.86l1.2 3.68 1.2-3.68z" stroke="#1071e5" stroke-width=".05" fill="#1071e5"/><use xlink:href="#M" transform="matrix(1,0,0,1,1079.9292648322803,184.19736389589144) translate(0 17.77777777777778)"/><use xlink:href="#q" transform="matrix(1,0,0,1,1079.9292648322803,184.19736389589144) translate(24.691358024691358 17.77777777777778)"/><use xlink:href="#N" transform="matrix(1,0,0,1,1079.9292648322803,184.19736389589144) translate(96.23456790123456 17.77777777777778)"/><use xlink:href="#O" transform="matrix(1,0,0,1,1079.9292648322803,184.19736389589144) translate(188.58024691358023 17.77777777777778)"/><path d="M898.4 1081.5l.07.65.12.53.2.5.3.47.35.42.4.36.48.28.5.22.44.1 271.4.08v5l-272-.07-1.38-.34-1.25-.52-1.14-.7-1-.86-.87-1.02-.7-1.14-.5-1.23-.32-1.3-.1-1.23V893.54h5zm0-214.62h-5V624.93h5z" stroke="#1071e5" stroke-width=".05" fill="#1071e5"/><path d="M898.4 625h-5v-2.57h5z" fill="#1071e5"/><path d="M898.44 625.02h-5.05v-2.6h5.04zm-5-2.56v2.5h4.95v-2.5z" stroke="#1071e5" stroke-width=".05" fill="#1071e5"/><path d="M1189.45 1087.6l-14.27 4.64v-9.28z" fill="#1071e5"/><path d="M1197.54 1087.6l-24.86 8.08v-16.16zm-19.86 1.2l3.68-1.2-3.68-1.2z" stroke="#1071e5" stroke-width=".05" fill="#1071e5"/><g><use xlink:href="#P" transform="matrix(1,0,0,1,857.1185254120146,866.8766404199476) translate(0 17.77777777777778)"/><use xlink:href="#L" transform="matrix(1,0,0,1,857.1185254120146,866.8766404199476) translate(24.691358024691358 17.77777777777778)"/></g><path d="M12 806a6 6 0 0 1 6-6h374a6 6 0 0 1 6 6v89.35a6 6 0 0 1-6 6H18a6 6 0 0 1-6-6z" stroke="#000" stroke-width="5" fill="#fff"/><g><use xlink:href="#k" transform="matrix(1,0,0,1,23.995709287410904,812) translate(159.17773222222223 44.23475777777778)"/></g><path d="M12 946a6 6 0 0 1 6-6h374a6 6 0 0 1 6 6v89.35a6 6 0 0 1-6 6H18a6 6 0 0 1-6-6z" stroke="#000" stroke-width="5" fill="#fff"/><g><use xlink:href="#Q" transform="matrix(1,0,0,1,23.995709287410904,952) translate(133.8005199382716 44.23475777777778)"/></g><path d="M12 1084.65a6 6 0 0 1 6-6h374a6 6 0 0 1 6 6V1174a6 6 0 0 1-6 6H18a6 6 0 0 1-6-6z" stroke="#000" stroke-width="5" fill="#fff"/><g><use xlink:href="#R" transform="matrix(1,0,0,1,23.995709287410904,1090.645840299982) translate(100.55909407407407 44.23475777777778)"/><use xlink:href="#S" transform="matrix(1,0,0,1,23.995709287410904,1090.645840299982) translate(179.08024197530864 44.23475777777778)"/></g><path d="M12 1246a6 6 0 0 1 6-6h374a6 6 0 0 1 6 6v89.35a6 6 0 0 1-6 6H18a6 6 0 0 1-6-6z" stroke="#000" stroke-width="5" fill="#fff"/><g><use xlink:href="#T" transform="matrix(1,0,0,1,23.995709287410875,1252) translate(32.29167080246913 29.60975777777778)"/><use xlink:href="#U" transform="matrix(1,0,0,1,23.995709287410875,1252) translate(102.34366561728395 29.60975777777778)"/><use xlink:href="#V" transform="matrix(1,0,0,1,23.995709287410875,1252) translate(196.65373462962964 29.60975777777778)"/><use xlink:href="#W" transform="matrix(1,0,0,1,23.995709287410875,1252) translate(246.1377862345679 29.60975777777778)"/><use xlink:href="#X" transform="matrix(1,0,0,1,23.995709287410875,1252) translate(79.5374462345679 55.74314444444445)"/><use xlink:href="#Y" transform="matrix(1,0,0,1,23.995709287410875,1252) translate(195.32286771604936 55.74314444444445)"/></g><path d="M686.76 909.6l-.1 1.22-.3 1.3-.52 1.23-.7 1.14-.86 1-1.02.87-1.14.7-1.23.5-1.4.34-213.2.1v-5l212.6-.1.44-.1.5-.2.47-.3.43-.34.36-.42.27-.47.2-.5.14-.54.06-.64v-61.2h5zm0-88.08h-5V625h5z" stroke="#1071e5" stroke-width=".05" fill="#1071e5"/><path d="M686.76 625.06h-5v-2.56h5z" fill="#1071e5"/><path d="M686.8 625.08h-5.06v-2.6h5.05zm-5-2.56v2.5h4.94v-2.5z" stroke="#1071e5" stroke-width=".05" fill="#1071e5"/><path d="M463.8 920.12l-14.27-4.63 14.27-4.65z" fill="#1071e5"/><path d="M466.3 923.56l-24.86-8.07 24.86-8.1zm-8.68-8.07l3.68 1.18v-2.4z" stroke="#1071e5" stroke-width=".05" fill="#1071e5"/><g><use xlink:href="#Z" transform="matrix(1,0,0,1,585.7128807634911,821.5223097112862) translate(0 17.77777777777778)"/><use xlink:href="#aa" transform="matrix(1,0,0,1,585.7128807634911,821.5223097112862) translate(24.691358024691358 17.77777777777778)"/><use xlink:href="#r" transform="matrix(1,0,0,1,585.7128807634911,821.5223097112862) translate(99.81481481481481 17.77777777777778)"/><use xlink:href="#ab" transform="matrix(1,0,0,1,585.7128807634911,821.5223097112862) translate(144.19753086419752 17.77777777777778)"/></g><path d="M443.63 463.03l-.3 1.3-.52 1.23-.7 1.14-.85 1.02-1.02.86-1.14.7-1.24.5-1.4.35-106.68.07v-5l106.1-.07.43-.1.52-.22.46-.27.42-.36.36-.42.28-.46.2-.52.14-.53v-.07h5.02zm131.4-30.53h-127.7l-.65.05-.53.13-.5.2-.47.3-.42.35-.36.42-.28.46-.2.52-.12.44v.16h-5v-.76l.34-1.4.5-1.22.7-1.14.87-1.02 1.03-.86 1.14-.7 1.23-.5 1.3-.32 1.23-.1h127.9z" stroke="#1071e5" stroke-width=".05" fill="#1071e5"/><path d="M577.54 432.5h-2.57v-5h2.57z" fill="#1071e5"/><path d="M577.56 432.52h-2.6v-5.04h2.6zm-2.56-5v4.96h2.5v-4.96z" stroke="#1071e5" stroke-width=".05" fill="#1071e5"/><path d="M327.28 472.34L313 467.7l14.28-4.64z" fill="#1071e5"/><path d="M329.78 475.78l-24.86-8.08 24.86-8.08zm-8.68-8.08l3.68 1.2v-2.4z" stroke="#1071e5" stroke-width=".05" fill="#1071e5"/><g><use xlink:href="#ac" transform="matrix(1,0,0,1,378.9770993402514,435.51663999999994) translate(0 17.77777777777778)"/><use xlink:href="#ad" transform="matrix(1,0,0,1,378.9770993402514,435.51663999999994) translate(78.9506172839506 17.77777777777778)"/></g><path d="M547.74 177.57l1.4.34 1.23.52 1.14.7 1.02.86.87 1.02.7 1.14.5 1.23.3 1.3.1 1.23.08 40.55.1.44.22.5.28.46.36.42.4.36.48.28.5.2.54.14.65.05H575v5h-16.6l-1.22-.1-1.3-.3-1.24-.5-1.13-.7-1-.87-.88-1.02-.7-1.13-.5-1.23-.34-1.4-.07-40.94-.04-.65-.13-.53-.2-.5-.3-.47-.35-.42-.42-.36-.47-.28-.5-.22-.45-.1-126.06-.03v-5zm-373-.06v5H106.3v-5z" stroke="#1071e5" stroke-width=".05" fill="#1071e5"/><path d="M577.5 234.3h-2.56v-5h2.57z" fill="#1071e5"/><path d="M577.53 234.34h-2.6v-5.05h2.6zm-2.56-5v4.95h2.5v-4.96z" stroke="#1071e5" stroke-width=".05" fill="#1071e5"/><path d="M103.82 184.64L89.55 180l14.27-4.64z" fill="#1071e5"/><path d="M106.32 188.08L81.46 180l24.86-8.08zM97.64 180l3.68 1.2v-2.4z" stroke="#1071e5" stroke-width=".05" fill="#1071e5"/><g><use xlink:href="#ae" transform="matrix(1,0,0,1,314.708661417323,169.6) translate(0 13.866666666666669)"/></g><g><use xlink:href="#af" transform="matrix(1,0,0,1,174.731748809177,166.66666666666666) translate(0 17.77777777777778)"/><use xlink:href="#ag" transform="matrix(1,0,0,1,174.731748809177,166.66666666666666) translate(24.691358024691358 17.77777777777778)"/><use xlink:href="#ah" transform="matrix(1,0,0,1,174.731748809177,166.66666666666666) translate(94.87654320987653 17.77777777777778)"/><use xlink:href="#ai" transform="matrix(1,0,0,1,174.731748809177,166.66666666666666) translate(166.41975308641975 17.77777777777778)"/><use xlink:href="#ab" transform="matrix(1,0,0,1,174.731748809177,166.66666666666666) translate(193.45679012345678 17.77777777777778)"/></g><defs><path d="M135-150c-39-12-60 13-60 57V0H25l-1-190h47c2 13-1 29 3 40 6-28 27-53 61-41v41" id="aj"/><path d="M185-48c-13 30-37 53-82 52C43 2 14-33 14-96s30-98 90-98c62 0 83 45 84 108H66c0 31 8 55 39 56 18 0 30-7 34-22zm-45-69c5-46-57-63-70-21-2 6-4 13-4 21h74" id="ak"/><path d="M220-157c-53 9-28 100-34 157h-49v-107c1-27-5-49-29-50C55-147 81-57 75 0H25l-1-190h47c2 12-1 28 3 38 10-53 101-56 108 0 13-22 24-43 59-42 82 1 51 116 57 194h-49v-107c-1-25-5-48-29-50" id="al"/><path d="M110-194c64 0 96 36 96 99 0 64-35 99-97 99-61 0-95-36-95-99 0-62 34-99 96-99zm-1 164c35 0 45-28 45-65 0-40-10-65-43-65-34 0-45 26-45 65 0 36 10 65 43 65" id="am"/><path d="M115-3C79 11 28 4 28-45v-112H4v-33h27l15-45h31v45h36v33H77v99c-1 23 16 31 38 25v30" id="an"/><g id="a"><use transform="matrix(0.06172839506172839,0,0,0.06172839506172839,0,0)" xlink:href="#aj"/><use transform="matrix(0.06172839506172839,0,0,0.06172839506172839,8.641975308641975,0)" xlink:href="#ak"/><use transform="matrix(0.06172839506172839,0,0,0.06172839506172839,20.98765432098765,0)" xlink:href="#al"/><use transform="matrix(0.06172839506172839,0,0,0.06172839506172839,40.74074074074073,0)" xlink:href="#am"/><use transform="matrix(0.06172839506172839,0,0,0.06172839506172839,54.25925925925925,0)" xlink:href="#an"/><use transform="matrix(0.06172839506172839,0,0,0.06172839506172839,61.60493827160493,0)" xlink:href="#ak"/></g><path d="M114-157C55-157 80-60 75 0H25v-261h50l-1 109c12-26 28-41 61-42 86-1 58 113 63 194h-50c-7-57 23-157-34-157" id="ao"/><path d="M137-138c1-29-70-34-71-4 15 46 118 7 119 86 1 83-164 76-172 9l43-7c4 19 20 25 44 25 33 8 57-30 24-41C81-84 22-81 20-136c-2-80 154-74 161-7" id="ap"/><g id="b"><use transform="matrix(0.06172839506172839,0,0,0.06172839506172839,0,0)" xlink:href="#ao"/><use transform="matrix(0.06172839506172839,0,0,0.06172839506172839,13.518518518518517,0)" xlink:href="#am"/><use transform="matrix(0.06172839506172839,0,0,0.06172839506172839,27.037037037037035,0)" xlink:href="#ap"/><use transform="matrix(0.06172839506172839,0,0,0.06172839506172839,39.382716049382715,0)" xlink:href="#an"/></g><path d="M128 0H69L1-190h53L99-40l48-150h52" id="aq"/><g id="c"><use transform="matrix(0.06172839506172839,0,0,0.06172839506172839,0,0)" xlink:href="#aq"/><use transform="matrix(0.06172839506172839,0,0,0.06172839506172839,12.345679012345679,0)" xlink:href="#al"/><use transform="matrix(0.06172839506172839,0,0,0.06172839506172839,32.098765432098766,0)" xlink:href="#ap"/></g><path d="M24 0v-248h52V0H24" id="ar"/><path d="M133-34C117-15 103 5 69 4 32 3 11-16 11-54c-1-60 55-63 116-61 1-26-3-47-28-47-18 1-26 9-28 27l-52-2c7-38 36-58 82-57s74 22 75 68l1 82c-1 14 12 18 25 15v27c-30 8-71 5-69-32zm-48 3c29 0 43-24 42-57-32 0-66-3-65 30 0 17 8 27 23 27" id="as"/><path d="M195-6C206 82 75 100 31 46c-4-6-6-13-8-21l49-6c3 16 16 24 34 25 40 0 42-37 40-79-11 22-30 35-61 35-53 0-70-43-70-97 0-56 18-96 73-97 30 0 46 14 59 34l2-30h47zm-90-29c32 0 41-27 41-63 0-35-9-62-40-62-32 0-39 29-40 63 0 36 9 62 39 62" id="at"/><g id="d"><use transform="matrix(0.06172839506172839,0,0,0.06172839506172839,0,0)" xlink:href="#ar"/><use transform="matrix(0.06172839506172839,0,0,0.06172839506172839,6.172839506172839,0)" xlink:href="#al"/><use transform="matrix(0.06172839506172839,0,0,0.06172839506172839,25.925925925925924,0)" xlink:href="#as"/><use transform="matrix(0.06172839506172839,0,0,0.06172839506172839,38.2716049382716,0)" xlink:href="#at"/><use transform="matrix(0.06172839506172839,0,0,0.06172839506172839,51.79012345679012,0)" xlink:href="#ak"/></g><path d="M25-224v-37h50v37H25zM25 0v-190h50V0H25" id="au"/><path d="M123 10C108 53 80 86 19 72V37c35 8 53-11 59-39L3-190h52l48 148c12-52 28-100 44-148h51" id="av"/><g id="e"><use transform="matrix(0.06172839506172839,0,0,0.06172839506172839,0,0)" xlink:href="#aj"/><use transform="matrix(0.06172839506172839,0,0,0.06172839506172839,8.641975308641975,0)" xlink:href="#ak"/><use transform="matrix(0.06172839506172839,0,0,0.06172839506172839,20.98765432098765,0)" xlink:href="#at"/><use transform="matrix(0.06172839506172839,0,0,0.06172839506172839,34.50617283950617,0)" xlink:href="#au"/><use transform="matrix(0.06172839506172839,0,0,0.06172839506172839,40.67901234567901,0)" xlink:href="#ap"/><use transform="matrix(0.06172839506172839,0,0,0.06172839506172839,53.02469135802469,0)" xlink:href="#an"/><use transform="matrix(0.06172839506172839,0,0,0.06172839506172839,60.37037037037037,0)" xlink:href="#aj"/><use transform="matrix(0.06172839506172839,0,0,0.06172839506172839,69.01234567901234,0)" xlink:href="#av"/></g><path d="M4 7l51-268h42L46 7H4" id="aw"/><path d="M144 0l-44-69L55 0H2l70-98-66-92h53l41 62 40-62h54l-67 91 71 99h-54" id="ax"/><path d="M135-194c53 0 70 44 70 98 0 56-19 98-73 100-31 1-45-17-59-34 3 33 2 69 2 105H25l-1-265h48c2 10 0 23 3 31 11-24 29-35 60-35zM114-30c33 0 39-31 40-66 0-38-9-64-40-64-56 0-55 130 0 130" id="ay"/><path d="M25 0v-261h50V0H25" id="az"/><g id="f"><use transform="matrix(0.06172839506172839,0,0,0.06172839506172839,0,0)" xlink:href="#au"/><use transform="matrix(0.06172839506172839,0,0,0.06172839506172839,6.172839506172839,0)" xlink:href="#al"/><use transform="matrix(0.06172839506172839,0,0,0.06172839506172839,25.925925925925924,0)" xlink:href="#as"/><use transform="matrix(0.06172839506172839,0,0,0.06172839506172839,38.2716049382716,0)" xlink:href="#at"/><use transform="matrix(0.06172839506172839,0,0,0.06172839506172839,51.79012345679012,0)" xlink:href="#ak"/><use transform="matrix(0.06172839506172839,0,0,0.06172839506172839,64.1358024691358,0)" xlink:href="#aw"/><use transform="matrix(0.06172839506172839,0,0,0.06172839506172839,70.30864197530863,0)" xlink:href="#ak"/><use transform="matrix(0.06172839506172839,0,0,0.06172839506172839,82.65432098765432,0)" xlink:href="#ax"/><use transform="matrix(0.06172839506172839,0,0,0.06172839506172839,95,0)" xlink:href="#as"/><use transform="matrix(0.06172839506172839,0,0,0.06172839506172839,107.34567901234568,0)" xlink:href="#al"/><use transform="matrix(0.06172839506172839,0,0,0.06172839506172839,127.09876543209879,0)" xlink:href="#ay"/><use transform="matrix(0.06172839506172839,0,0,0.06172839506172839,140.6172839506173,0)" xlink:href="#az"/><use transform="matrix(0.06172839506172839,0,0,0.06172839506172839,146.79012345679013,0)" xlink:href="#ak"/></g><path d="M147 0L96-86 75-71V0H25v-261h50v150l67-79h53l-66 74L201 0h-54" id="aA"/><path d="M25-224v-37h50v37H25zM75 22c2 45-34 59-81 51V38c22 5 31-5 31-27v-201h50V22" id="aB"/><g id="g"><use transform="matrix(0.06172839506172839,0,0,0.06172839506172839,0,0)" xlink:href="#aA"/><use transform="matrix(0.06172839506172839,0,0,0.06172839506172839,12.345679012345679,0)" xlink:href="#am"/><use transform="matrix(0.06172839506172839,0,0,0.06172839506172839,25.864197530864196,0)" xlink:href="#aB"/><use transform="matrix(0.06172839506172839,0,0,0.06172839506172839,32.03703703703704,0)" xlink:href="#au"/></g><path d="M135-194c52 0 70 43 70 98 0 56-19 99-73 100-30 1-46-15-58-35L72 0H24l1-261h50v104c11-23 29-37 60-37zM114-30c31 0 40-27 40-66 0-37-7-63-39-63s-41 28-41 65c0 36 8 64 40 64" id="aC"/><path d="M85 4C-2 5 27-109 22-190h50c7 57-23 150 33 157 60-5 35-97 40-157h50l1 190h-47c-2-12 1-28-3-38-12 25-28 42-61 42" id="aD"/><path d="M88-194c31-1 46 15 58 34l-1-101h50l1 261h-48c-2-10 0-23-3-31C134-8 116 4 84 4 32 4 16-41 15-95c0-56 19-97 73-99zm17 164c33 0 40-30 41-66 1-37-9-64-41-64s-38 30-39 65c0 43 13 65 39 65" id="aE"/><g id="h"><use transform="matrix(0.06172839506172839,0,0,0.06172839506172839,0,0)" xlink:href="#aC"/><use transform="matrix(0.06172839506172839,0,0,0.06172839506172839,13.518518518518517,0)" xlink:href="#aD"/><use transform="matrix(0.06172839506172839,0,0,0.06172839506172839,27.037037037037035,0)" xlink:href="#au"/><use transform="matrix(0.06172839506172839,0,0,0.06172839506172839,33.20987654320987,0)" xlink:href="#az"/><use transform="matrix(0.06172839506172839,0,0,0.06172839506172839,39.382716049382715,0)" xlink:href="#aE"/></g><path d="M240-174c0 40-23 61-54 70L253 0h-59l-57-94H76V0H24v-248c93 4 217-23 216 74zM76-134c48-2 112 12 112-38 0-48-66-32-112-35v73" id="aF"/><path d="M231 0h-52l-39-155L100 0H48L-1-190h46L77-45c9-52 24-97 36-145h53l37 145 32-145h46" id="aG"/><g id="i"><use transform="matrix(0.06172839506172839,0,0,0.06172839506172839,0,0)" xlink:href="#aF"/><use transform="matrix(0.06172839506172839,0,0,0.06172839506172839,15.987654320987653,0)" xlink:href="#ao"/><use transform="matrix(0.06172839506172839,0,0,0.06172839506172839,29.50617283950617,0)" xlink:href="#ay"/><use transform="matrix(0.06172839506172839,0,0,0.06172839506172839,43.02469135802469,0)" xlink:href="#aA"/><use transform="matrix(0.06172839506172839,0,0,0.06172839506172839,55.37037037037037,0)" xlink:href="#at"/><use transform="matrix(0.06172839506172839,0,0,0.06172839506172839,68.88888888888889,0)" xlink:href="#aw"/><use transform="matrix(0.06172839506172839,0,0,0.06172839506172839,75.06172839506172,0)" xlink:href="#aC"/><use transform="matrix(0.06172839506172839,0,0,0.06172839506172839,88.58024691358024,0)" xlink:href="#aj"/><use transform="matrix(0.06172839506172839,0,0,0.06172839506172839,97.22222222222221,0)" xlink:href="#ak"/><use transform="matrix(0.06172839506172839,0,0,0.06172839506172839,109.5679012345679,0)" xlink:href="#aG"/></g><g id="j"><use transform="matrix(0.06172839506172839,0,0,0.06172839506172839,0,0)" xlink:href="#an"/><use transform="matrix(0.06172839506172839,0,0,0.06172839506172839,7.345679012345679,0)" xlink:href="#as"/><use transform="matrix(0.06172839506172839,0,0,0.06172839506172839,19.691358024691358,0)" xlink:href="#ap"/><use transform="matrix(0.06172839506172839,0,0,0.06172839506172839,32.03703703703704,0)" xlink:href="#aA"/></g><g id="k"><use transform="matrix(0.06049395061728395,0,0,0.06049395061728395,0,0)" xlink:href="#az"/><use transform="matrix(0.06049395061728395,0,0,0.06049395061728395,6.049395061728395,0)" xlink:href="#am"/><use transform="matrix(0.06049395061728395,0,0,0.06049395061728395,19.29757024691358,0)" xlink:href="#at"/><use transform="matrix(0.06049395061728395,0,0,0.06049395061728395,32.54574543209877,0)" xlink:href="#ap"/></g><path d="M140-251c80 0 125 45 125 126S219 4 139 4C58 4 15-44 15-125s44-126 125-126zm-1 214c52 0 73-35 73-88 0-50-21-86-72-86-52 0-73 35-73 86s22 88 72 88" id="aH"/><path d="M135-194c87-1 58 113 63 194h-50c-7-57 23-157-34-157-59 0-34 97-39 157H25l-1-190h47c2 12-1 28 3 38 12-26 28-41 61-42" id="aI"/><path d="M121-226c-27-7-43 5-38 36h38v33H83V0H34v-157H6v-33h28c-9-59 32-81 87-68v32" id="aJ"/><g id="l"><use transform="matrix(0.06172839506172839,0,0,0.06172839506172839,0,0)" xlink:href="#aH"/><use transform="matrix(0.06172839506172839,0,0,0.06172839506172839,17.28395061728395,0)" xlink:href="#ay"/><use transform="matrix(0.06172839506172839,0,0,0.06172839506172839,30.80246913580247,0)" xlink:href="#ak"/><use transform="matrix(0.06172839506172839,0,0,0.06172839506172839,43.148148148148145,0)" xlink:href="#aI"/><use transform="matrix(0.06172839506172839,0,0,0.06172839506172839,56.666666666666664,0)" xlink:href="#ap"/><use transform="matrix(0.06172839506172839,0,0,0.06172839506172839,69.01234567901234,0)" xlink:href="#ao"/><use transform="matrix(0.06172839506172839,0,0,0.06172839506172839,82.53086419753086,0)" xlink:href="#au"/><use transform="matrix(0.06172839506172839,0,0,0.06172839506172839,88.7037037037037,0)" xlink:href="#aJ"/><use transform="matrix(0.06172839506172839,0,0,0.06172839506172839,96.04938271604938,0)" xlink:href="#an"/></g><path d="M190-63c-7 42-38 67-86 67-59 0-84-38-90-98-12-110 154-137 174-36l-49 2c-2-19-15-32-35-32-30 0-35 28-38 64-6 74 65 87 74 30" id="aK"/><g id="m"><use transform="matrix(0.06172839506172839,0,0,0.06172839506172839,0,0)" xlink:href="#aK"/><use transform="matrix(0.06172839506172839,0,0,0.06172839506172839,12.345679012345679,0)" xlink:href="#az"/><use transform="matrix(0.06172839506172839,0,0,0.06172839506172839,18.51851851851852,0)" xlink:href="#aD"/><use transform="matrix(0.06172839506172839,0,0,0.06172839506172839,32.03703703703704,0)" xlink:href="#ap"/><use transform="matrix(0.06172839506172839,0,0,0.06172839506172839,44.382716049382715,0)" xlink:href="#an"/><use transform="matrix(0.06172839506172839,0,0,0.06172839506172839,51.72839506172839,0)" xlink:href="#ak"/><use transform="matrix(0.06172839506172839,0,0,0.06172839506172839,64.07407407407408,0)" xlink:href="#aj"/></g><path d="M136-208V0H84v-208H4v-40h212v40h-80" id="aL"/><g id="n"><use transform="matrix(0.06172839506172839,0,0,0.06172839506172839,0,0)" xlink:href="#aL"/><use transform="matrix(0.06172839506172839,0,0,0.06172839506172839,11.851851851851851,0)" xlink:href="#ak"/><use transform="matrix(0.06172839506172839,0,0,0.06172839506172839,24.19753086419753,0)" xlink:href="#aA"/><use transform="matrix(0.06172839506172839,0,0,0.06172839506172839,36.54320987654321,0)" xlink:href="#an"/><use transform="matrix(0.06172839506172839,0,0,0.06172839506172839,43.888888888888886,0)" xlink:href="#am"/><use transform="matrix(0.06172839506172839,0,0,0.06172839506172839,57.407407407407405,0)" xlink:href="#aI"/></g><g id="o"><use transform="matrix(0.06172839506172839,0,0,0.06172839506172839,0,0)" xlink:href="#ay"/><use transform="matrix(0.06172839506172839,0,0,0.06172839506172839,13.518518518518517,0)" xlink:href="#au"/><use transform="matrix(0.06172839506172839,0,0,0.06172839506172839,19.691358024691358,0)" xlink:href="#ay"/><use transform="matrix(0.06172839506172839,0,0,0.06172839506172839,33.20987654320987,0)" xlink:href="#ak"/><use transform="matrix(0.06172839506172839,0,0,0.06172839506172839,45.55555555555555,0)" xlink:href="#az"/><use transform="matrix(0.06172839506172839,0,0,0.06172839506172839,51.72839506172839,0)" xlink:href="#au"/><use transform="matrix(0.06172839506172839,0,0,0.06172839506172839,57.901234567901234,0)" xlink:href="#aI"/><use transform="matrix(0.06172839506172839,0,0,0.06172839506172839,71.41975308641975,0)" xlink:href="#ak"/></g><path d="M23 0v-37h61v-169l-59 37v-38l62-41h46v211h57V0H23" id="aM"/><path d="M24 0v-54h51V0H24" id="aN"/><g id="p"><use transform="matrix(0.06172839506172839,0,0,0.06172839506172839,0,0)" xlink:href="#aM"/><use transform="matrix(0.06172839506172839,0,0,0.06172839506172839,12.345679012345679,0)" xlink:href="#aN"/></g><g id="q"><use transform="matrix(0.06172839506172839,0,0,0.06172839506172839,0,0)" xlink:href="#aK"/><use transform="matrix(0.06172839506172839,0,0,0.06172839506172839,12.345679012345679,0)" xlink:href="#aj"/><use transform="matrix(0.06172839506172839,0,0,0.06172839506172839,20.98765432098765,0)" xlink:href="#ak"/><use transform="matrix(0.06172839506172839,0,0,0.06172839506172839,33.33333333333333,0)" xlink:href="#as"/><use transform="matrix(0.06172839506172839,0,0,0.06172839506172839,45.679012345679006,0)" xlink:href="#an"/><use transform="matrix(0.06172839506172839,0,0,0.06172839506172839,53.02469135802468,0)" xlink:href="#ak"/></g><g id="r"><use transform="matrix(0.06172839506172839,0,0,0.06172839506172839,0,0)" xlink:href="#aA"/><use transform="matrix(0.06172839506172839,0,0,0.06172839506172839,12.345679012345679,0)" xlink:href="#am"/><use transform="matrix(0.06172839506172839,0,0,0.06172839506172839,25.864197530864196,0)" xlink:href="#aB"/><use transform="matrix(0.06172839506172839,0,0,0.06172839506172839,32.03703703703704,0)" xlink:href="#au"/></g><g id="s"><use transform="matrix(0.06172839506172839,0,0,0.06172839506172839,0,0)" xlink:href="#an"/><use transform="matrix(0.06172839506172839,0,0,0.06172839506172839,7.345679012345679,0)" xlink:href="#as"/><use transform="matrix(0.06172839506172839,0,0,0.06172839506172839,19.691358024691358,0)" xlink:href="#ap"/><use transform="matrix(0.06172839506172839,0,0,0.06172839506172839,32.03703703703704,0)" xlink:href="#aA"/></g><g id="t"><use transform="matrix(0.06172839506172839,0,0,0.06172839506172839,0,0)" xlink:href="#an"/><use transform="matrix(0.06172839506172839,0,0,0.06172839506172839,7.345679012345679,0)" xlink:href="#as"/><use transform="matrix(0.06172839506172839,0,0,0.06172839506172839,19.691358024691358,0)" xlink:href="#ap"/><use transform="matrix(0.06172839506172839,0,0,0.06172839506172839,32.03703703703704,0)" xlink:href="#aA"/><use transform="matrix(0.06172839506172839,0,0,0.06172839506172839,44.382716049382715,0)" xlink:href="#ap"/></g><path d="M138-131c27 9 52 24 51 61 0 53-36 74-89 74S11-19 11-69c0-35 22-54 51-61-78-25-46-121 38-121 51 0 83 19 83 66 0 30-18 49-45 54zm-38-16c24 0 32-13 32-36 1-23-11-34-32-34-22 0-33 12-32 34 0 22 9 36 32 36zm1 116c27 0 37-17 37-43 0-25-13-39-39-39-24 0-37 15-37 40 0 27 11 42 39 42" id="aO"/><path d="M115-159c48 0 72 30 72 78 0 54-30 85-83 85-64 0-91-50-91-122 0-98 58-163 141-120 15 8 21 24 27 44l-47 6c-5-31-48-31-61-4-7 14-11 33-11 60 9-17 28-27 53-27zM102-35c24 0 36-20 36-45s-11-43-37-43c-23 0-36 14-36 38 0 27 11 50 37 50" id="aP"/><path d="M-4 44V30h207v14H-4" id="aQ"/><path d="M165-50V0h-47v-50H5v-38l105-160h55v161h33v37h-33zm-47-37l2-116L46-87h72" id="aR"/><g id="u"><use transform="matrix(0.06049395061728395,0,0,0.06049395061728395,0,0)" xlink:href="#ax"/><use transform="matrix(0.06049395061728395,0,0,0.06049395061728395,12.09879012345679,0)" xlink:href="#aO"/><use transform="matrix(0.06049395061728395,0,0,0.06049395061728395,24.19758024691358,0)" xlink:href="#aP"/><use transform="matrix(0.06049395061728395,0,0,0.06049395061728395,36.29637037037037,0)" xlink:href="#aQ"/><use transform="matrix(0.06049395061728395,0,0,0.06049395061728395,48.39516049382716,0)" xlink:href="#aP"/><use transform="matrix(0.06049395061728395,0,0,0.06049395061728395,60.49395061728396,0)" xlink:href="#aR"/></g><g id="v"><use transform="matrix(0.06049395061728395,0,0,0.06049395061728395,0,0)" xlink:href="#aC"/><use transform="matrix(0.06049395061728395,0,0,0.06049395061728395,13.248175185185186,0)" xlink:href="#aD"/><use transform="matrix(0.06049395061728395,0,0,0.06049395061728395,26.496350370370372,0)" xlink:href="#au"/><use transform="matrix(0.06049395061728395,0,0,0.06049395061728395,32.54574543209877,0)" xlink:href="#az"/><use transform="matrix(0.06049395061728395,0,0,0.06049395061728395,38.59514049382717,0)" xlink:href="#aE"/></g><g id="w"><use transform="matrix(0.06049395061728395,0,0,0.06049395061728395,0,0)" xlink:href="#au"/><use transform="matrix(0.06049395061728395,0,0,0.06049395061728395,6.049395061728395,0)" xlink:href="#al"/><use transform="matrix(0.06049395061728395,0,0,0.06049395061728395,25.407459259259262,0)" xlink:href="#as"/><use transform="matrix(0.06049395061728395,0,0,0.06049395061728395,37.50624938271605,0)" xlink:href="#at"/><use transform="matrix(0.06049395061728395,0,0,0.06049395061728395,50.75442456790124,0)" xlink:href="#ak"/></g><g id="x"><use transform="matrix(0.06049395061728395,0,0,0.06049395061728395,0,0)" xlink:href="#al"/><use transform="matrix(0.06049395061728395,0,0,0.06049395061728395,19.358064197530865,0)" xlink:href="#as"/><use transform="matrix(0.06049395061728395,0,0,0.06049395061728395,31.456854320987656,0)" xlink:href="#aI"/><use transform="matrix(0.06049395061728395,0,0,0.06049395061728395,44.70502950617284,0)" xlink:href="#au"/><use transform="matrix(0.06049395061728395,0,0,0.06049395061728395,50.75442456790124,0)" xlink:href="#aJ"/><use transform="matrix(0.06049395061728395,0,0,0.06049395061728395,57.95320469135803,0)" xlink:href="#ak"/><use transform="matrix(0.06049395061728395,0,0,0.06049395061728395,70.05199481481482,0)" xlink:href="#ap"/><use transform="matrix(0.06049395061728395,0,0,0.06049395061728395,82.15078493827161,0)" xlink:href="#an"/></g><g id="y"><use transform="matrix(0.06049395061728395,0,0,0.06049395061728395,0,0)" xlink:href="#ax"/><use transform="matrix(0.06049395061728395,0,0,0.06049395061728395,12.09879012345679,0)" xlink:href="#aO"/><use transform="matrix(0.06049395061728395,0,0,0.06049395061728395,24.19758024691358,0)" xlink:href="#aP"/><use transform="matrix(0.06049395061728395,0,0,0.06049395061728395,36.29637037037037,0)" xlink:href="#aQ"/><use transform="matrix(0.06049395061728395,0,0,0.06049395061728395,48.39516049382716,0)" xlink:href="#aP"/><use transform="matrix(0.06049395061728395,0,0,0.06049395061728395,60.49395061728396,0)" xlink:href="#aR"/></g><g id="z"><use transform="matrix(0.06049395061728395,0,0,0.06049395061728395,0,0)" xlink:href="#ay"/><use transform="matrix(0.06049395061728395,0,0,0.06049395061728395,13.248175185185186,0)" xlink:href="#ay"/><use transform="matrix(0.06049395061728395,0,0,0.06049395061728395,26.496350370370372,0)" xlink:href="#aK"/><use transform="matrix(0.06049395061728395,0,0,0.06049395061728395,38.59514049382716,0)" xlink:href="#aP"/><use transform="matrix(0.06049395061728395,0,0,0.06049395061728395,50.693930617283954,0)" xlink:href="#aR"/><use transform="matrix(0.06049395061728395,0,0,0.06049395061728395,62.792720740740755,0)" xlink:href="#az"/><use transform="matrix(0.06049395061728395,0,0,0.06049395061728395,68.84211580246914,0)" xlink:href="#ak"/></g><path d="M128-127c34 4 56 21 59 58 7 91-148 94-172 28-4-9-6-17-7-26l51-5c1 24 16 35 40 36 23 0 39-12 38-36-1-31-31-36-65-34v-40c32 2 59-3 59-33 0-20-13-33-34-33s-33 13-35 32l-50-3c6-44 37-68 86-68 50 0 83 20 83 66 0 35-22 52-53 58" id="aS"/><path d="M99-251c69 0 84 53 88 123 5 99-61 162-144 118-15-8-21-25-26-45l46-6c4 31 50 33 63 7 7-15 12-36 12-60-9 18-29 28-54 28-48 0-72-32-72-82 0-55 31-83 87-83zm-1 128c24 0 37-16 37-39 0-27-10-51-37-51-25 0-35 19-35 45 0 25 10 45 35 45" id="aT"/><path d="M101-251c68 0 84 54 84 127C185-50 166 4 99 4S15-52 14-124c-1-75 17-127 87-127zm-1 216c37-5 36-46 36-89s4-89-36-89c-39 0-36 45-36 89 0 43-3 85 36 89" id="aU"/><g id="A"><use transform="matrix(0.06049395061728395,0,0,0.06049395061728395,0,0)" xlink:href="#ap"/><use transform="matrix(0.06049395061728395,0,0,0.06049395061728395,12.09879012345679,0)" xlink:href="#aS"/><use transform="matrix(0.06049395061728395,0,0,0.06049395061728395,24.19758024691358,0)" xlink:href="#aT"/><use transform="matrix(0.06049395061728395,0,0,0.06049395061728395,36.29637037037037,0)" xlink:href="#aU"/><use transform="matrix(0.06049395061728395,0,0,0.06049395061728395,48.39516049382716,0)" xlink:href="#ax"/></g><g id="B"><use transform="matrix(0.06049395061728395,0,0,0.06049395061728395,0,0)" xlink:href="#as"/><use transform="matrix(0.06049395061728395,0,0,0.06049395061728395,12.09879012345679,0)" xlink:href="#as"/><use transform="matrix(0.06049395061728395,0,0,0.06049395061728395,24.19758024691358,0)" xlink:href="#aj"/><use transform="matrix(0.06049395061728395,0,0,0.06049395061728395,32.66673333333333,0)" xlink:href="#aK"/><use transform="matrix(0.06049395061728395,0,0,0.06049395061728395,44.76552345679012,0)" xlink:href="#ao"/><use transform="matrix(0.06049395061728395,0,0,0.06049395061728395,58.01369864197531,0)" xlink:href="#aP"/><use transform="matrix(0.06049395061728395,0,0,0.06049395061728395,70.1124887654321,0)" xlink:href="#aR"/></g><g id="C"><use transform="matrix(0.06049395061728395,0,0,0.06049395061728395,0,0)" xlink:href="#al"/><use transform="matrix(0.06049395061728395,0,0,0.06049395061728395,19.358064197530865,0)" xlink:href="#as"/><use transform="matrix(0.06049395061728395,0,0,0.06049395061728395,31.456854320987656,0)" xlink:href="#aI"/><use transform="matrix(0.06049395061728395,0,0,0.06049395061728395,44.70502950617284,0)" xlink:href="#au"/><use transform="matrix(0.06049395061728395,0,0,0.06049395061728395,50.75442456790124,0)" xlink:href="#aJ"/><use transform="matrix(0.06049395061728395,0,0,0.06049395061728395,57.95320469135803,0)" xlink:href="#ak"/><use transform="matrix(0.06049395061728395,0,0,0.06049395061728395,70.05199481481482,0)" xlink:href="#ap"/><use transform="matrix(0.06049395061728395,0,0,0.06049395061728395,82.15078493827161,0)" xlink:href="#an"/></g><g id="D"><use transform="matrix(0.06049395061728395,0,0,0.06049395061728395,0,0)" xlink:href="#az"/><use transform="matrix(0.06049395061728395,0,0,0.06049395061728395,6.049395061728395,0)" xlink:href="#au"/><use transform="matrix(0.06049395061728395,0,0,0.06049395061728395,12.09879012345679,0)" xlink:href="#ap"/><use transform="matrix(0.06049395061728395,0,0,0.06049395061728395,24.19758024691358,0)" xlink:href="#an"/></g><path d="M182-182c0 78-84 86-111 141h115V0H12c-6-101 99-100 120-180 1-22-12-31-33-32-23 0-32 14-35 34l-49-3c5-45 32-70 84-70 51 0 83 22 83 69" id="aV"/><g id="E"><use transform="matrix(0.06172839506172839,0,0,0.06172839506172839,0,0)" xlink:href="#aV"/><use transform="matrix(0.06172839506172839,0,0,0.06172839506172839,12.345679012345679,0)" xlink:href="#aN"/></g><g id="F"><use transform="matrix(0.06172839506172839,0,0,0.06172839506172839,0,0)" xlink:href="#ay"/><use transform="matrix(0.06172839506172839,0,0,0.06172839506172839,13.518518518518517,0)" xlink:href="#au"/><use transform="matrix(0.06172839506172839,0,0,0.06172839506172839,19.691358024691358,0)" xlink:href="#ay"/><use transform="matrix(0.06172839506172839,0,0,0.06172839506172839,33.20987654320987,0)" xlink:href="#ak"/><use transform="matrix(0.06172839506172839,0,0,0.06172839506172839,45.55555555555555,0)" xlink:href="#az"/><use transform="matrix(0.06172839506172839,0,0,0.06172839506172839,51.72839506172839,0)" xlink:href="#au"/><use transform="matrix(0.06172839506172839,0,0,0.06172839506172839,57.901234567901234,0)" xlink:href="#aI"/><use transform="matrix(0.06172839506172839,0,0,0.06172839506172839,71.41975308641975,0)" xlink:href="#ak"/></g><g id="G"><use transform="matrix(0.06172839506172839,0,0,0.06172839506172839,0,0)" xlink:href="#aj"/><use transform="matrix(0.06172839506172839,0,0,0.06172839506172839,8.641975308641975,0)" xlink:href="#aD"/><use transform="matrix(0.06172839506172839,0,0,0.06172839506172839,22.160493827160494,0)" xlink:href="#aI"/></g><g id="H"><use transform="matrix(0.06049395061728395,0,0,0.06049395061728395,0,0)" xlink:href="#ay"/><use transform="matrix(0.06049395061728395,0,0,0.06049395061728395,13.248175185185186,0)" xlink:href="#ay"/><use transform="matrix(0.06049395061728395,0,0,0.06049395061728395,26.496350370370372,0)" xlink:href="#aK"/><use transform="matrix(0.06049395061728395,0,0,0.06049395061728395,38.59514049382716,0)" xlink:href="#aP"/><use transform="matrix(0.06049395061728395,0,0,0.06049395061728395,50.693930617283954,0)" xlink:href="#aR"/><use transform="matrix(0.06049395061728395,0,0,0.06049395061728395,62.792720740740755,0)" xlink:href="#az"/><use transform="matrix(0.06049395061728395,0,0,0.06049395061728395,68.84211580246914,0)" xlink:href="#ak"/></g><g id="I"><use transform="matrix(0.06049395061728395,0,0,0.06049395061728395,0,0)" xlink:href="#ap"/><use transform="matrix(0.06049395061728395,0,0,0.06049395061728395,12.09879012345679,0)" xlink:href="#aS"/><use transform="matrix(0.06049395061728395,0,0,0.06049395061728395,24.19758024691358,0)" xlink:href="#aT"/><use transform="matrix(0.06049395061728395,0,0,0.06049395061728395,36.29637037037037,0)" xlink:href="#aU"/><use transform="matrix(0.06049395061728395,0,0,0.06049395061728395,48.39516049382716,0)" xlink:href="#ax"/></g><g id="J"><use transform="matrix(0.06049395061728395,0,0,0.06049395061728395,0,0)" xlink:href="#as"/><use transform="matrix(0.06049395061728395,0,0,0.06049395061728395,12.09879012345679,0)" xlink:href="#as"/><use transform="matrix(0.06049395061728395,0,0,0.06049395061728395,24.19758024691358,0)" xlink:href="#aj"/><use transform="matrix(0.06049395061728395,0,0,0.06049395061728395,32.66673333333333,0)" xlink:href="#aK"/><use transform="matrix(0.06049395061728395,0,0,0.06049395061728395,44.76552345679012,0)" xlink:href="#ao"/><use transform="matrix(0.06049395061728395,0,0,0.06049395061728395,58.01369864197531,0)" xlink:href="#aP"/><use transform="matrix(0.06049395061728395,0,0,0.06049395061728395,70.1124887654321,0)" xlink:href="#aR"/></g><g id="K"><use transform="matrix(0.06172839506172839,0,0,0.06172839506172839,0,0)" xlink:href="#aR"/><use transform="matrix(0.06172839506172839,0,0,0.06172839506172839,12.345679012345679,0)" xlink:href="#aN"/></g><g id="L"><use transform="matrix(0.06172839506172839,0,0,0.06172839506172839,0,0)" xlink:href="#ay"/><use transform="matrix(0.06172839506172839,0,0,0.06172839506172839,13.518518518518517,0)" xlink:href="#aD"/><use transform="matrix(0.06172839506172839,0,0,0.06172839506172839,27.037037037037035,0)" xlink:href="#ap"/><use transform="matrix(0.06172839506172839,0,0,0.06172839506172839,39.382716049382715,0)" xlink:href="#ao"/></g><g id="M"><use transform="matrix(0.06172839506172839,0,0,0.06172839506172839,0,0)" xlink:href="#aS"/><use transform="matrix(0.06172839506172839,0,0,0.06172839506172839,12.345679012345679,0)" xlink:href="#aN"/></g><g id="N"><use transform="matrix(0.06172839506172839,0,0,0.06172839506172839,0,0)" xlink:href="#ay"/><use transform="matrix(0.06172839506172839,0,0,0.06172839506172839,13.518518518518517,0)" xlink:href="#am"/><use transform="matrix(0.06172839506172839,0,0,0.06172839506172839,27.037037037037035,0)" xlink:href="#aE"/><use transform="matrix(0.06172839506172839,0,0,0.06172839506172839,40.55555555555555,0)" xlink:href="#al"/><use transform="matrix(0.06172839506172839,0,0,0.06172839506172839,60.30864197530863,0)" xlink:href="#as"/><use transform="matrix(0.06172839506172839,0,0,0.06172839506172839,72.65432098765432,0)" xlink:href="#aI"/></g><g id="O"><use transform="matrix(0.06172839506172839,0,0,0.06172839506172839,0,0)" xlink:href="#aC"/><use transform="matrix(0.06172839506172839,0,0,0.06172839506172839,13.518518518518517,0)" xlink:href="#aD"/><use transform="matrix(0.06172839506172839,0,0,0.06172839506172839,27.037037037037035,0)" xlink:href="#au"/><use transform="matrix(0.06172839506172839,0,0,0.06172839506172839,33.20987654320987,0)" xlink:href="#az"/><use transform="matrix(0.06172839506172839,0,0,0.06172839506172839,39.382716049382715,0)" xlink:href="#aE"/><use transform="matrix(0.06172839506172839,0,0,0.06172839506172839,52.901234567901234,0)" xlink:href="#ap"/></g><path d="M139-81c0-46-55-55-73-27H18l9-140h149v37H72l-4 63c44-38 133-4 122 66C201 21 21 35 11-62l49-4c5 18 15 30 39 30 26 0 40-18 40-45" id="aW"/><g id="P"><use transform="matrix(0.06172839506172839,0,0,0.06172839506172839,0,0)" xlink:href="#aW"/><use transform="matrix(0.06172839506172839,0,0,0.06172839506172839,12.345679012345679,0)" xlink:href="#aN"/></g><g id="Q"><use transform="matrix(0.06049395061728395,0,0,0.06049395061728395,0,0)" xlink:href="#al"/><use transform="matrix(0.06049395061728395,0,0,0.06049395061728395,19.358064197530865,0)" xlink:href="#ak"/><use transform="matrix(0.06049395061728395,0,0,0.06049395061728395,31.456854320987656,0)" xlink:href="#an"/><use transform="matrix(0.06049395061728395,0,0,0.06049395061728395,38.655634444444445,0)" xlink:href="#as"/><use transform="matrix(0.06049395061728395,0,0,0.06049395061728395,50.75442456790124,0)" xlink:href="#aE"/><use transform="matrix(0.06049395061728395,0,0,0.06049395061728395,64.00259975308643,0)" xlink:href="#as"/><use transform="matrix(0.06049395061728395,0,0,0.06049395061728395,76.10138987654322,0)" xlink:href="#an"/><use transform="matrix(0.06049395061728395,0,0,0.06049395061728395,83.30017000000001,0)" xlink:href="#as"/></g><g id="R"><use transform="matrix(0.06049395061728395,0,0,0.06049395061728395,0,0)" xlink:href="#aj"/><use transform="matrix(0.06049395061728395,0,0,0.06049395061728395,8.469153086419754,0)" xlink:href="#ak"/><use transform="matrix(0.06049395061728395,0,0,0.06049395061728395,20.567943209876546,0)" xlink:href="#al"/><use transform="matrix(0.06049395061728395,0,0,0.06049395061728395,39.92600740740741,0)" xlink:href="#am"/><use transform="matrix(0.06049395061728395,0,0,0.06049395061728395,53.1741825925926,0)" xlink:href="#an"/><use transform="matrix(0.06049395061728395,0,0,0.06049395061728395,60.37296271604939,0)" xlink:href="#ak"/></g><g id="S"><use transform="matrix(0.06049395061728395,0,0,0.06049395061728395,0,0)" xlink:href="#ap"/><use transform="matrix(0.06049395061728395,0,0,0.06049395061728395,12.09879012345679,0)" xlink:href="#am"/><use transform="matrix(0.06049395061728395,0,0,0.06049395061728395,25.346965308641977,0)" xlink:href="#aD"/><use transform="matrix(0.06049395061728395,0,0,0.06049395061728395,38.59514049382716,0)" xlink:href="#aj"/><use transform="matrix(0.06049395061728395,0,0,0.06049395061728395,47.06429358024691,0)" xlink:href="#aK"/><use transform="matrix(0.06049395061728395,0,0,0.06049395061728395,59.163083703703705,0)" xlink:href="#ak"/><use transform="matrix(0.06049395061728395,0,0,0.06049395061728395,71.2618738271605,0)" xlink:href="#ap"/></g><g id="T"><use transform="matrix(0.06049395061728395,0,0,0.06049395061728395,0,0)" xlink:href="#ak"/><use transform="matrix(0.06049395061728395,0,0,0.06049395061728395,12.09879012345679,0)" xlink:href="#al"/><use transform="matrix(0.06049395061728395,0,0,0.06049395061728395,31.456854320987656,0)" xlink:href="#ay"/><use transform="matrix(0.06049395061728395,0,0,0.06049395061728395,44.70502950617284,0)" xlink:href="#an"/><use transform="matrix(0.06049395061728395,0,0,0.06049395061728395,51.903809629629635,0)" xlink:href="#av"/></g><g id="U"><use transform="matrix(0.06049395061728395,0,0,0.06049395061728395,0,0)" xlink:href="#as"/><use transform="matrix(0.06049395061728395,0,0,0.06049395061728395,12.09879012345679,0)" xlink:href="#aj"/><use transform="matrix(0.06049395061728395,0,0,0.06049395061728395,20.567943209876546,0)" xlink:href="#aK"/><use transform="matrix(0.06049395061728395,0,0,0.06049395061728395,32.66673333333334,0)" xlink:href="#ao"/><use transform="matrix(0.06049395061728395,0,0,0.06049395061728395,45.91490851851853,0)" xlink:href="#au"/><use transform="matrix(0.06049395061728395,0,0,0.06049395061728395,51.96430358024693,0)" xlink:href="#aq"/><use transform="matrix(0.06049395061728395,0,0,0.06049395061728395,64.06309370370371,0)" xlink:href="#ak"/><use transform="matrix(0.06049395061728395,0,0,0.06049395061728395,76.16188382716051,0)" xlink:href="#ap"/></g><g id="V"><use transform="matrix(0.06049395061728395,0,0,0.06049395061728395,0,0)" xlink:href="#aG"/><use transform="matrix(0.06049395061728395,0,0,0.06049395061728395,16.938306172839507,0)" xlink:href="#au"/><use transform="matrix(0.06049395061728395,0,0,0.06049395061728395,22.9877012345679,0)" xlink:href="#an"/><use transform="matrix(0.06049395061728395,0,0,0.06049395061728395,30.18648135802469,0)" xlink:href="#ao"/></g><g id="W"><use transform="matrix(0.06049395061728395,0,0,0.06049395061728395,0,0)" xlink:href="#aF"/><use transform="matrix(0.06049395061728395,0,0,0.06049395061728395,15.667933209876542,0)" xlink:href="#ak"/><use transform="matrix(0.06049395061728395,0,0,0.06049395061728395,27.76672333333333,0)" xlink:href="#as"/><use transform="matrix(0.06049395061728395,0,0,0.06049395061728395,39.865513456790126,0)" xlink:href="#aE"/><use transform="matrix(0.06049395061728395,0,0,0.06049395061728395,53.113688641975315,0)" xlink:href="#al"/><use transform="matrix(0.06049395061728395,0,0,0.06049395061728395,72.47175283950618,0)" xlink:href="#ak"/></g><g id="X"><use transform="matrix(0.06049395061728395,0,0,0.06049395061728395,0,0)" xlink:href="#aK"/><use transform="matrix(0.06049395061728395,0,0,0.06049395061728395,12.09879012345679,0)" xlink:href="#am"/><use transform="matrix(0.06049395061728395,0,0,0.06049395061728395,25.346965308641977,0)" xlink:href="#aI"/><use transform="matrix(0.06049395061728395,0,0,0.06049395061728395,38.59514049382716,0)" xlink:href="#an"/><use transform="matrix(0.06049395061728395,0,0,0.06049395061728395,45.79392061728395,0)" xlink:href="#as"/><use transform="matrix(0.06049395061728395,0,0,0.06049395061728395,57.89271074074074,0)" xlink:href="#au"/><use transform="matrix(0.06049395061728395,0,0,0.06049395061728395,63.942105802469136,0)" xlink:href="#aI"/><use transform="matrix(0.06049395061728395,0,0,0.06049395061728395,77.19028098765432,0)" xlink:href="#au"/><use transform="matrix(0.06049395061728395,0,0,0.06049395061728395,83.23967604938271,0)" xlink:href="#aI"/><use transform="matrix(0.06049395061728395,0,0,0.06049395061728395,96.4878512345679,0)" xlink:href="#at"/></g><g id="Y"><use transform="matrix(0.06049395061728395,0,0,0.06049395061728395,0,0)" xlink:href="#ay"/><use transform="matrix(0.06049395061728395,0,0,0.06049395061728395,13.248175185185186,0)" xlink:href="#aD"/><use transform="matrix(0.06049395061728395,0,0,0.06049395061728395,26.496350370370372,0)" xlink:href="#az"/><use transform="matrix(0.06049395061728395,0,0,0.06049395061728395,32.54574543209877,0)" xlink:href="#az"/><use transform="matrix(0.06049395061728395,0,0,0.06049395061728395,38.59514049382717,0)" xlink:href="#ap"/><use transform="matrix(0.06049395061728395,0,0,0.06049395061728395,50.693930617283954,0)" xlink:href="#ay"/><use transform="matrix(0.06049395061728395,0,0,0.06049395061728395,63.94210580246915,0)" xlink:href="#ak"/><use transform="matrix(0.06049395061728395,0,0,0.06049395061728395,76.04089592592594,0)" xlink:href="#aK"/></g><g id="Z"><use transform="matrix(0.06172839506172839,0,0,0.06172839506172839,0,0)" xlink:href="#aP"/><use transform="matrix(0.06172839506172839,0,0,0.06172839506172839,12.345679012345679,0)" xlink:href="#aN"/></g><g id="aa"><use transform="matrix(0.06172839506172839,0,0,0.06172839506172839,0,0)" xlink:href="#au"/><use transform="matrix(0.06172839506172839,0,0,0.06172839506172839,6.172839506172839,0)" xlink:href="#al"/><use transform="matrix(0.06172839506172839,0,0,0.06172839506172839,25.925925925925924,0)" xlink:href="#ay"/><use transform="matrix(0.06172839506172839,0,0,0.06172839506172839,39.44444444444444,0)" xlink:href="#am"/><use transform="matrix(0.06172839506172839,0,0,0.06172839506172839,52.96296296296296,0)" xlink:href="#aj"/><use transform="matrix(0.06172839506172839,0,0,0.06172839506172839,61.60493827160494,0)" xlink:href="#an"/></g><g id="ab"><use transform="matrix(0.06172839506172839,0,0,0.06172839506172839,0,0)" xlink:href="#aC"/><use transform="matrix(0.06172839506172839,0,0,0.06172839506172839,13.518518518518517,0)" xlink:href="#aD"/><use transform="matrix(0.06172839506172839,0,0,0.06172839506172839,27.037037037037035,0)" xlink:href="#au"/><use transform="matrix(0.06172839506172839,0,0,0.06172839506172839,33.20987654320987,0)" xlink:href="#az"/><use transform="matrix(0.06172839506172839,0,0,0.06172839506172839,39.382716049382715,0)" xlink:href="#aE"/></g><g id="ac"><use transform="matrix(0.06172839506172839,0,0,0.06172839506172839,0,0)" xlink:href="#ap"/><use transform="matrix(0.06172839506172839,0,0,0.06172839506172839,12.345679012345679,0)" xlink:href="#an"/><use transform="matrix(0.06172839506172839,0,0,0.06172839506172839,19.691358024691358,0)" xlink:href="#aj"/><use transform="matrix(0.06172839506172839,0,0,0.06172839506172839,28.333333333333332,0)" xlink:href="#ak"/><use transform="matrix(0.06172839506172839,0,0,0.06172839506172839,40.67901234567901,0)" xlink:href="#as"/><use transform="matrix(0.06172839506172839,0,0,0.06172839506172839,53.02469135802469,0)" xlink:href="#al"/></g><g id="ad"><use transform="matrix(0.06172839506172839,0,0,0.06172839506172839,0,0)" xlink:href="#az"/><use transform="matrix(0.06172839506172839,0,0,0.06172839506172839,6.172839506172839,0)" xlink:href="#am"/><use transform="matrix(0.06172839506172839,0,0,0.06172839506172839,19.691358024691358,0)" xlink:href="#at"/><use transform="matrix(0.06172839506172839,0,0,0.06172839506172839,33.20987654320987,0)" xlink:href="#ap"/></g><path d="M52 0c1-96 47-148 87-207H15v-41h169v40c-36 62-79 113-81 208H52" id="aX"/><g id="af"><use transform="matrix(0.06172839506172839,0,0,0.06172839506172839,0,0)" xlink:href="#aX"/><use transform="matrix(0.06172839506172839,0,0,0.06172839506172839,12.345679012345679,0)" xlink:href="#aN"/></g><g id="ag"><use transform="matrix(0.06172839506172839,0,0,0.06172839506172839,0,0)" xlink:href="#aj"/><use transform="matrix(0.06172839506172839,0,0,0.06172839506172839,8.641975308641975,0)" xlink:href="#ak"/><use transform="matrix(0.06172839506172839,0,0,0.06172839506172839,20.98765432098765,0)" xlink:href="#an"/><use transform="matrix(0.06172839506172839,0,0,0.06172839506172839,28.33333333333333,0)" xlink:href="#aD"/><use transform="matrix(0.06172839506172839,0,0,0.06172839506172839,41.85185185185185,0)" xlink:href="#aj"/><use transform="matrix(0.06172839506172839,0,0,0.06172839506172839,50.49382716049382,0)" xlink:href="#aI"/></g><g id="ah"><use transform="matrix(0.06172839506172839,0,0,0.06172839506172839,0,0)" xlink:href="#aj"/><use transform="matrix(0.06172839506172839,0,0,0.06172839506172839,8.641975308641975,0)" xlink:href="#ak"/><use transform="matrix(0.06172839506172839,0,0,0.06172839506172839,20.98765432098765,0)" xlink:href="#ap"/><use transform="matrix(0.06172839506172839,0,0,0.06172839506172839,33.33333333333333,0)" xlink:href="#aD"/><use transform="matrix(0.06172839506172839,0,0,0.06172839506172839,46.85185185185185,0)" xlink:href="#az"/><use transform="matrix(0.06172839506172839,0,0,0.06172839506172839,53.02469135802469,0)" xlink:href="#ap"/></g><g id="ai"><use transform="matrix(0.06172839506172839,0,0,0.06172839506172839,0,0)" xlink:href="#am"/><use transform="matrix(0.06172839506172839,0,0,0.06172839506172839,13.518518518518517,0)" xlink:href="#aJ"/></g></defs></g></svg>